<?xml version="1.0" encoding="UTF-8"?>
<!DOCTYPE svg PUBLIC "-//W3C//DTD SVG 1.1//EN" "http://www.w3.org/Graphics/SVG/1.1/DTD/svg11.dtd">
<!-- Creator: CorelDRAW 2017 -->
<svg xmlns="http://www.w3.org/2000/svg" xml:space="preserve" width="100%" height="100%" version="1.1" style="shape-rendering:geometricPrecision; text-rendering:geometricPrecision; image-rendering:optimizeQuality; fill-rule:evenodd; clip-rule:evenodd"
viewBox="0 0 23.74915 88.59524"
 xmlns:xlink="http://www.w3.org/1999/xlink">
 <defs>
  <style type="text/css">
   <![CDATA[
    .str3 {stroke:#FFCC29;stroke-width:0.17383;stroke-miterlimit:22.9256}
    .str1 {stroke:#FFCC29;stroke-width:0.17383;stroke-linecap:round;stroke-linejoin:round;stroke-miterlimit:22.9256}
    .str0 {stroke:#FFCC29;stroke-width:0.17383;stroke-linecap:round;stroke-linejoin:round;stroke-miterlimit:22.9256}
    .str2 {stroke:#FFCC29;stroke-width:0.17383;stroke-linecap:round;stroke-linejoin:round;stroke-miterlimit:22.9256}
    .fil2 {fill:none}
    .fil3 {fill:#FEFEFE}
    .fil5 {fill:#FFF8AF}
    .fil0 {fill:#FFF8AF}
    .fil6 {fill:#F58634}
    .fil1 {fill:#F54029}
    .fil4 {fill:#FFCC29;fill-rule:nonzero}
   ]]>
  </style>
 </defs>
 <g id="Camada_x0020_1">
  <metadata id="CorelCorpID_0Corel-Layer"/>
  <g id="_2427408275968">
   <g>
    <path class="fil0 str0" d="M13.70594 8.70838l-0.07045 2.18354c0,0 0,0.84524 1.47918,1.19743 1.47918,0.35219 3.80359,0.91567 4.50796,1.19742 0.70436,0.28176 2.39485,0.91569 2.39485,5.35321 0,4.43752 -0.14087,6.97325 -0.14087,7.81848 0,0.84524 0.70436,3.24009 0.63393,5.28276 -0.07044,2.04267 -0.21132,4.64883 -0.35219,6.76194 -0.14087,2.1131 -0.28174,3.02878 -0.28174,3.02878 0,0 0.49305,1.97223 0.28174,3.02878 -0.21131,1.05656 -0.35218,1.47917 -0.98611,2.39485 -0.63393,0.91569 -0.35219,1.26787 -1.47918,0.84525 -0.35218,1.69048 -0.5635,2.39486 -0.98611,3.80359 -0.42262,1.40873 -0.56349,1.97223 -1.62004,3.73315 -0.07044,1.76092 0.35217,2.95835 -0.07045,4.22621 -0.42261,1.26786 -0.28175,1.62005 -0.07043,3.31053 0.21131,1.69048 0.35219,5.63494 -0.35218,9.29766 -0.70438,3.66272 -0.98611,3.73315 -1.19743,4.93058 -0.21131,1.19742 -0.84523,1.83135 0.07044,2.81747 0.91567,0.98612 1.76092,2.11311 1.76092,2.11311 0,0 0.91567,0.77481 -0.35219,1.05655 -1.26786,0.28174 -2.53572,0.14087 -2.53572,0.14087 0,0 -0.98612,0.28173 -1.05655,-0.77481 -0.07044,-1.05654 -0.49306,-1.12699 -0.49306,-1.12699l-0.28175 -0.7748c0,0 0.28175,-0.42262 0.28175,-0.98612 0,-0.56349 0.07043,-3.73315 -0.07044,-4.43752 -0.14087,-0.70437 -0.56349,-4.71926 -0.56349,-5.42363 0,-0.70436 -0.14087,-5.07145 -0.07044,-5.63494 0.07044,-0.5635 0.28175,-1.40875 0,-2.39486 -0.14088,-0.49305 -0.19371,-1.32069 -0.21131,-2.02506 -0.01761,0.70437 -0.07045,1.53201 -0.21132,2.02506 -0.28175,0.98611 -0.07044,1.83136 0,2.39486 0.07044,0.56349 -0.07044,4.93058 -0.07044,5.63494 0,0.70437 -0.42262,4.71926 -0.56349,5.42363 -0.14087,0.70437 -0.07044,3.87403 -0.07044,4.43752 0,0.5635 0.28175,0.98612 0.28175,0.98612l-0.28175 0.7748c0,0 -0.42262,0.07045 -0.49306,1.12699 -0.07043,1.05654 -1.05655,0.77481 -1.05655,0.77481 0,0 -1.26786,0.14087 -2.53572,-0.14087 -1.26786,-0.28174 -0.35219,-1.05655 -0.35219,-1.05655 0,0 0.84525,-1.12699 1.76092,-2.11311 0.91568,-0.98612 0.28175,-1.62005 0.07044,-2.81747 -0.21132,-1.19743 -0.49305,-1.26786 -1.19743,-4.93058 -0.70437,-3.66272 -0.56349,-7.60718 -0.35218,-9.29766 0.21132,-1.69048 0.35218,-2.04267 -0.07043,-3.31053 -0.42262,-1.26786 -0.00001,-2.46529 -0.07045,-4.22621 -1.05655,-1.76092 -1.19742,-2.32442 -1.62003,-3.73315 -0.42262,-1.40873 -0.63394,-2.11311 -0.98612,-3.80359 -1.12699,0.42262 -0.84525,0.07044 -1.47918,-0.84525 -0.63393,-0.91568 -0.7748,-1.33829 -0.98611,-2.39485 -0.21131,-1.05655 0.28175,-3.02878 0.28175,-3.02878 0,0 -0.14088,-0.91568 -0.28175,-3.02878 -0.14087,-2.11311 -0.28175,-4.71927 -0.35219,-6.76194 -0.07043,-2.04267 0.63394,-4.43752 0.63394,-5.28276 0,-0.84523 -0.14088,-3.38096 -0.14088,-7.81848 0,-4.43752 1.69049,-5.07145 2.39485,-5.35321 0.70437,-0.28175 3.02878,-0.84523 4.50796,-1.19742 1.47918,-0.35219 1.47918,-1.19743 1.47918,-1.19743l-0.07045 -2.18354 1.26 -0.22234 0.00787 -0.20027 0.5635 0.09944 0.56349 -0.09944 0.00787 0.20027 1.26 0.22234z"/>
    <g>
     <path class="fil1" d="M6.46568 15.65139c-0.33581,1.87907 -1.19651,0.90374 -1.02385,3.05269 0.04184,0.5209 1.51003,3.25339 3.00198,3.25339 3.16598,0 3.13757,0.15385 3.13757,-3.62943 0,-1.09542 -0.0153,-2.66135 -0.49493,-3.50404 -0.42115,-0.73995 -1.15292,-0.91239 -2.28744,-0.88443 -0.60028,0.01479 -1.53078,-0.00126 -1.93146,0.04578 -0.75017,0.08808 -0.28085,0.98891 -0.40187,1.66604z"/>
     <path class="fil1" d="M2.46305 18.44922c0.09936,0.36837 -0.34558,3.59524 0.51441,2.07933 0.23027,-0.4059 0.1967,-0.85397 0.56451,-1.48062 0.54684,-0.93169 0.89525,-2.00402 1.45268,-2.91693 0.41042,-0.67215 1.80757,-2.88052 -0.00289,-2.65779 -0.67045,0.08248 -2.02201,1.19369 -2.24743,2.02586 -0.26397,0.97456 -0.19957,0.99928 -0.31211,1.96709 -0.02244,0.19305 -0.01416,0.81626 0.03083,0.98306z"/>
     <path class="fil1" d="M4.88858 19.25187c-0.06315,-1.76295 -1.74344,2.61134 -1.56152,4.44064 0.09348,0.94002 0.17006,2.01558 -0.38051,2.80368 -0.00307,0.00439 -0.20995,1.2463 0.51915,0.78142 0.00853,-0.00543 0.84972,-1.3598 1.13952,-1.61781 0.51445,-0.45797 0.46278,-1.39954 0.43415,-2.19897l-0.15079 -4.20896z"/>
     <path class="fil1" d="M8.85474 26.76561c-0.57311,-1.39264 0.29935,-3.62105 -1.50354,-4.61897 -0.91146,-0.50449 -1.95825,-2.14079 -1.51751,0.48539 0.20317,1.21068 0.46172,2.33466 0.76984,3.5125 0.30326,1.15928 0.46957,2.58649 -0.03662,3.73914 -0.45131,1.02766 -0.8576,1.30259 -0.89894,2.27811 -0.01959,0.46224 2.04487,2.51479 2.55712,0.63519 0.4401,-1.61488 0.84885,-1.11083 0.84885,-3.41815 0,-0.73516 0.03425,-1.99731 -0.2192,-2.61321z"/>
     <path class="fil1" d="M4.5698 30.39598c-0.27148,-0.62492 0.39726,-3.80412 -1.1719,-2.14899 -0.03554,0.03748 -0.5726,6.79833 0.45439,5.48708 0.00448,-0.00572 0.0128,-1.24231 0.48171,-1.71736 0.09854,-0.09984 0.33701,-1.38775 0.2358,-1.62073z"/>
     <path class="fil1" d="M2.95262 41.35947c0.3555,0.23272 0.34849,-2.42688 -0.02733,-3.03703 -0.20623,-0.33483 0.43033,-3.70552 0.02429,-4.2241 -0.56812,-0.72561 0.44928,-5.87064 -0.64667,-5.87064 -0.60309,0 -0.56673,2.544 -0.56673,3.11697 0,1.31705 0.05449,4.37365 0.22318,6.69622 0.11809,1.62591 0.09349,2.72957 0.99326,3.31858z"/>
     <path class="fil1" d="M7.35064 52.55105c0,0 -0.78219,-2.24453 -1.19028,-4.285 -0.40809,-2.04047 -0.71416,-4.7271 -0.61214,-8.16191 0.10202,-3.4348 0.23806,-5.03318 0.27207,-5.88338 0.03401,-0.8502 -1.25829,-1.53036 -1.36032,0.13603 -0.10203,1.66639 -0.3741,4.251 -0.27207,7.54977 0.10203,3.29878 0.10203,4.76112 0.71417,6.93763 0.61214,2.17651 1.3263,3.70686 1.59837,4.25099 0.27207,0.54413 1.05425,2.00647 1.05425,1.02024 0,-0.98623 -0.20405,-1.56437 -0.20405,-1.56437z"/>
     <path class="fil1" d="M7.9113 51.36952c0.17676,0.30214 0.98377,3.2967 0.65198,3.83124 -0.84021,1.35364 0.03709,1.37944 0.46251,0.71416 0.29513,-0.46152 1.18154,0.27897 1.21553,-0.17586 0.06198,-0.82922 -0.64615,0.52503 -0.64615,-2.23578 0,-2.35373 -0.17004,-3.84965 -0.17004,-6.22346 0,-1.74953 -0.98056,-3.81684 -1.32339,-4.65617 -0.49126,-1.2027 -1.18796,-2.86123 -1.2583,-3.02963 -0.95232,-2.27974 -0.85523,2.16337 -0.79384,2.7323 0.13958,1.29354 0.37346,3.2195 0.51012,3.92452 0.12806,0.6607 1.1005,4.68953 1.35158,5.11868z"/>
     <path class="fil1" d="M8.33687 37.24747c-1.49442,-0.70507 -0.02242,-3.30813 -1.66055,-2.50784 -0.13699,0.06693 -0.79995,3.13071 -0.37993,3.188 0.07584,0.36655 2.24453,0.72648 2.24453,-0.20405 0,-0.37558 0.09455,-0.47611 -0.20405,-0.47611z"/>
     <path class="fil1" d="M11.12553 44.93327c0,-2.0765 0.60764,-2.05252 -1.11352,-3.64759 -0.53046,-0.4916 -0.76971,-3.158 -1.95303,-1.89571 -0.2861,0.30519 -0.09462,2.26738 0.26623,2.69538 0.67281,0.79797 2.09154,3.49394 2.05215,4.4152 -0.0074,0.17299 0.81619,3.35364 0.81619,-0.5383 0,-0.33442 -0.06802,-0.67273 -0.06802,-1.02898z"/>
     <path class="fil1" d="M11.24456 51.27575c-0.14848,-0.49597 0.28514,-4.15436 -0.9945,-2.28679 -0.18109,0.26429 -0.44656,4.17651 -0.09424,4.59982 0.05127,0.0616 -0.03327,2.69859 0.86769,1.6489 0.28738,-0.33482 0.4192,-3.79484 0.22105,-3.96193z"/>
     <path class="fil1" d="M8.43188 70.32426c-0.06761,-0.47542 -0.48712,-4.48885 -0.25216,-4.52306 1.18082,-0.17191 0.43638,-3.18663 0.50721,-4.04694 0.00311,-0.0377 -0.39283,-2.07379 -0.99497,-0.4936 -0.34277,0.89951 -0.66573,1.80944 -0.63741,2.84889 0.05653,2.07387 0.16975,4.69948 0.51012,6.89487 0.0676,0.43599 0.64716,4.43564 1.43125,3.9906 0.04177,-0.02371 -0.52126,-4.36959 -0.56404,-4.67076z"/>
     <path class="fil1" d="M10.60838 73.26595c-0.15072,2.31723 -0.73808,1.89644 -0.56113,-0.15304 0.12294,-1.42382 0.40747,-6.8048 0.04568,-7.48175 -0.53626,-1.00338 -0.92591,-1.8244 -0.35757,-3.0607 0.21059,-0.45811 0.58631,-1.70067 1.13975,-0.61215 0.31036,0.61045 0.17304,1.93867 0.14962,2.82557 -0.07261,2.75047 -0.19827,5.12961 -0.41635,8.48207z"/>
     <path class="fil1" d="M10.22994 38.23495c0.30402,0.57313 -0.00253,1.94527 0.97971,2.11306 0.60826,0.10391 0.35119,-1.19021 0.24524,-1.56821 -0.4068,-1.45128 0.14507,-6.83597 0.06393,-8.81747 -0.02572,-0.62844 0.02833,-2.22133 0.02833,-3.013 0,-0.65008 0.25121,-2.75809 -0.11574,-3.0282 -0.20957,-0.15429 -1.05081,-1.7457 -2.09136,-0.8902 -0.75542,0.62107 0.97249,5.3543 0.59973,6.77584 -0.20422,0.77877 0.18693,1.85346 -0.49371,2.79911 -0.58712,0.81572 -0.0569,2.92072 0.28085,3.75017 0.07875,0.1934 0.38646,1.65917 0.50302,1.8789z"/>
     <path class="fil1" d="M17.24785 15.65139c0.33581,1.87907 1.19651,0.90374 1.02385,3.05269 -0.04184,0.5209 -1.51003,3.25339 -3.00198,3.25339 -3.16597,0 -3.13757,0.15385 -3.13757,-3.62943 0,-1.09542 0.0153,-2.66135 0.49493,-3.50404 0.42115,-0.73995 1.15292,-0.91239 2.28744,-0.88443 0.60028,0.01479 1.53078,-0.00126 1.93147,0.04578 0.75016,0.08808 0.28084,0.98891 0.40186,1.66604z"/>
     <path class="fil1" d="M21.25048 18.44922c-0.09936,0.36837 0.34558,3.59524 -0.51441,2.07933 -0.23027,-0.4059 -0.1967,-0.85397 -0.5645,-1.48062 -0.54685,-0.93169 -0.89525,-2.00402 -1.45268,-2.91693 -0.41043,-0.67215 -1.80758,-2.88052 0.00288,-2.65779 0.67045,0.08248 2.02201,1.19369 2.24743,2.02586 0.26397,0.97456 0.19958,0.99928 0.31211,1.96709 0.02244,0.19305 0.01416,0.81626 -0.03083,0.98306z"/>
     <path class="fil1" d="M18.82495 19.25187c0.06315,-1.76295 1.74344,2.61134 1.56152,4.44064 -0.09348,0.94002 -0.17006,2.01558 0.38051,2.80368 0.00307,0.00439 0.20995,1.2463 -0.51915,0.78142 -0.00853,-0.00543 -0.84971,-1.3598 -1.13952,-1.61781 -0.51445,-0.45797 -0.46278,-1.39954 -0.43415,-2.19897l0.15079 -4.20896z"/>
     <path class="fil1" d="M14.8588 26.76561c0.5731,-1.39264 -0.29936,-3.62105 1.50354,-4.61897 0.91145,-0.50449 1.95824,-2.14079 1.5175,0.48539 -0.20317,1.21068 -0.46172,2.33466 -0.76983,3.5125 -0.30326,1.15928 -0.46958,2.58649 0.03661,3.73914 0.45132,1.02766 0.8576,1.30259 0.89895,2.27811 0.01958,0.46224 -2.04488,2.51479 -2.55713,0.63519 -0.4401,-1.61488 -0.84885,-1.11083 -0.84885,-3.41815 0,-0.73516 -0.03425,-1.99731 0.21921,-2.61321z"/>
     <path class="fil1" d="M19.14374 30.39598c0.27147,-0.62492 -0.39727,-3.80412 1.17189,-2.14899 0.03554,0.03748 0.5726,6.79833 -0.45439,5.48708 -0.00448,-0.00572 -0.0128,-1.24231 -0.4817,-1.71736 -0.09855,-0.09984 -0.33702,-1.38775 -0.2358,-1.62073z"/>
     <path class="fil1" d="M20.76092 41.35947c-0.3555,0.23272 -0.3485,-2.42688 0.02732,-3.03703 0.20623,-0.33483 -0.43032,-3.70552 -0.02429,-4.2241 0.56813,-0.72561 -0.44928,-5.87064 0.64667,-5.87064 0.60309,0 0.56673,2.544 0.56673,3.11697 0,1.31705 -0.05449,4.37365 -0.22317,6.69622 -0.11809,1.62591 -0.0935,2.72957 -0.99326,3.31858z"/>
     <path class="fil1" d="M16.36289 52.55105c0,0 0.78219,-2.24453 1.19028,-4.285 0.40809,-2.04047 0.71416,-4.7271 0.61214,-8.16191 -0.10202,-3.4348 -0.23806,-5.03318 -0.27207,-5.88338 -0.03401,-0.8502 1.25829,-1.53036 1.36032,0.13603 0.10203,1.66639 0.3741,4.251 0.27207,7.54977 -0.10203,3.29878 -0.10203,4.76112 -0.71417,6.93763 -0.61214,2.17651 -1.3263,3.70686 -1.59837,4.25099 -0.27207,0.54413 -1.05425,2.00647 -1.05425,1.02024 0,-0.98623 0.20405,-1.56437 0.20405,-1.56437z"/>
     <path class="fil1" d="M15.80224 51.36952c-0.17677,0.30214 -0.98377,3.2967 -0.65199,3.83124 0.84022,1.35364 -0.03708,1.37944 -0.4625,0.71416 -0.29514,-0.46152 -1.18155,0.27897 -1.21554,-0.17586 -0.06198,-0.82922 0.64616,0.52503 0.64616,-2.23578 0,-2.35373 0.17004,-3.84965 0.17004,-6.22346 0,-1.74953 0.98055,-3.81684 1.32339,-4.65617 0.49125,-1.2027 1.18796,-2.86123 1.2583,-3.02963 0.95231,-2.27974 0.85522,2.16337 0.79383,2.7323 -0.13958,1.29354 -0.37346,3.2195 -0.51012,3.92452 -0.12806,0.6607 -1.10049,4.68953 -1.35157,5.11868z"/>
     <path class="fil1" d="M15.37666 37.24747c1.49442,-0.70507 0.02242,-3.30813 1.66056,-2.50784 0.13698,0.06693 0.79994,3.13071 0.37992,3.188 -0.07583,0.36655 -2.24453,0.72648 -2.24453,-0.20405 0,-0.37558 -0.09455,-0.47611 0.20405,-0.47611z"/>
     <path class="fil1" d="M12.58801 44.93327c0,-2.0765 -0.60765,-2.05252 1.11351,-3.64759 0.53046,-0.4916 0.76971,-3.158 1.95303,-1.89571 0.2861,0.30519 0.09462,2.26738 -0.26623,2.69538 -0.67281,0.79797 -2.09154,3.49394 -2.05214,4.4152 0.00739,0.17299 -0.81619,3.35364 -0.81619,-0.5383 0,-0.33442 0.06802,-0.67273 0.06802,-1.02898z"/>
     <path class="fil1" d="M12.46898 51.27575c0.14847,-0.49597 -0.28514,-4.15436 0.99449,-2.28679 0.18109,0.26429 0.44656,4.17651 0.09424,4.59982 -0.05127,0.0616 0.03328,2.69859 -0.86768,1.6489 -0.28739,-0.33482 -0.41921,-3.79484 -0.22105,-3.96193z"/>
     <path class="fil1" d="M15.28165 70.32426c0.06761,-0.47542 0.48712,-4.48885 0.25216,-4.52306 -1.18082,-0.17191 -0.43637,-3.18663 -0.50721,-4.04694 -0.0031,-0.0377 0.39284,-2.07379 0.99497,-0.4936 0.34277,0.89951 0.66574,1.80944 0.63741,2.84889 -0.05653,2.07387 -0.16974,4.69948 -0.51012,6.89487 -0.06759,0.43599 -0.64716,4.43564 -1.43125,3.9906 -0.04177,-0.02371 0.52126,-4.36959 0.56404,-4.67076z"/>
     <path class="fil1" d="M13.10515 73.26595c0.15073,2.31723 0.73808,1.89644 0.56113,-0.15304 -0.12293,-1.42382 -0.40747,-6.8048 -0.04567,-7.48175 0.53625,-1.00338 0.9259,-1.8244 0.35756,-3.0607 -0.21058,-0.45811 -0.58631,-1.70067 -1.13974,-0.61215 -0.31037,0.61045 -0.17304,1.93867 -0.14963,2.82557 0.07261,2.75047 0.19827,5.12961 0.41635,8.48207z"/>
     <path class="fil1" d="M13.48359 38.23495c-0.30402,0.57313 0.00253,1.94527 -0.97971,2.11306 -0.60826,0.10391 -0.35118,-1.19021 -0.24523,-1.56821 0.40679,-1.45128 -0.14508,-6.83597 -0.06394,-8.81747 0.02573,-0.62844 -0.02833,-2.22133 -0.02833,-3.013 0,-0.65008 -0.25121,-2.75809 0.11574,-3.0282 0.20957,-0.15429 1.05082,-1.7457 2.09136,-0.8902 0.75543,0.62107 -0.97249,5.3543 -0.59973,6.77584 0.20422,0.77877 -0.18693,1.85346 0.49371,2.79911 0.58712,0.81572 0.05691,2.92072 -0.28085,3.75017 -0.07875,0.1934 -0.38646,1.65917 -0.50302,1.8789z"/>
    </g>
    <path class="fil2 str1" d="M5.39438 24.41579c0.37568,1.00226 0.32871,2.33176 0.49306,4.15578 0.23479,2.37137 -1.83518,2.27951 -2.25398,7.25499 -0.33683,4.00169 -0.2621,7.98284 0.42263,11.97426"/>
    <g>
     <path class="fil3" d="M18.64657 27.93763l0.19152 3.46114 -0.79427 -1.40797c-0.44046,-0.83515 0.04987,-2.92487 0.05457,-4.40754l0.54818 2.35437z"/>
     <path id="1" class="fil4" d="M18.92487 31.39395l-0.16245 0.04764 -0.01111 -0.038 -0.19152 -3.46114 0.17356 -0.00964 0.19152 3.46114zm-0.17356 0.00964l0.17356 -0.00964c0.00265,0.04799 -0.03405,0.08907 -0.08197,0.09173 -0.04792,0.00266 -0.08894,-0.0341 -0.09159,-0.08209zm-0.78316 -1.36997l-0.00118 -0.00216 0.15252 -0.08348 0.79427 1.40797 -0.15134 0.08564 -0.79427 -1.40797zm0.15134 -0.08564l-0.15134 0.08564c-0.02361,-0.04185 -0.00887,-0.09497 0.03292,-0.11861 0.04179,-0.02364 0.09481,-0.00888 0.11842,0.03297zm-0.10574 -4.34495l0.17155 -0.01949 -0.00184 0.14235 -0.00445 0.14537 -0.00679 0.14804 -0.00886 0.15039 -0.01067 0.15242 -0.01222 0.15412 -0.01349 0.15549 -0.01452 0.15652 -0.01528 0.15722 -0.01577 0.15759 -0.01602 0.15761 -0.016 0.15729 -0.01572 0.15665 -0.01518 0.15563 -0.01438 0.15429 -0.01333 0.1526 -0.01202 0.15054 -0.01045 0.14815 -0.00863 0.1454 -0.00654 0.14229 -0.00423 0.1388 -0.00164 0.13496 0.00117 0.13074 0.00424 0.12614 0.00753 0.12117 0.01103 0.11577 0.01475 0.11 0.01864 0.10379 0.0227 0.09719 0.02686 0.09018 0.03109 0.08279 0.03539 0.07511 -0.1537 0.08132 -0.04183 -0.08871 -0.03573 -0.09507 -0.0301 -0.101 -0.02492 -0.10665 -0.02014 -0.11203 -0.01571 -0.11712 -0.01163 -0.12195 -0.00785 -0.12649 -0.0044 -0.13076 -0.00121 -0.13472 0.00168 -0.1384 0.00431 -0.14174 0.00666 -0.14479 0.00875 -0.14752 0.01057 -0.14993 0.01214 -0.152 0.01343 -0.15374 0.01446 -0.15517 0.01524 -0.15625 0.01576 -0.15699 0.016 -0.15741 0.01602 -0.15747 0.01573 -0.15721 0.01522 -0.15658 0.01444 -0.15564 0.01339 -0.15431 0.0121 -0.15268 0.01055 -0.15066 0.00874 -0.14831 0.00667 -0.14558 0.00437 -0.14251 0.0018 -0.13909 0.17155 -0.01949 -0.16928 0.03954zm0.17155 -0.01949l-0.17382 -0.00056c0.00015,-0.04807 0.0392,-0.08692 0.08719,-0.08677 0.04799,0.00015 0.08678,0.03926 0.08663,0.08733zm0.54591 2.33432l0.00214 0.01495 -0.17142 0.02459 -0.54818 -2.35437 0.16928 -0.03954 0.54818 2.35437zm-0.16928 0.03954l0.16928 -0.03954c0.0109,0.04681 -0.01816,0.09363 -0.0649,0.10454 -0.04674,0.01091 -0.09348,-0.01819 -0.10438,-0.065z"/>
    </g>
    <path class="fil2 str2" d="M18.35477 24.41579c-0.37568,1.00226 -0.32871,2.33176 -0.49306,4.15578 -0.23478,2.37137 1.83518,2.27951 2.25398,7.25499 0.33683,4.00169 0.2621,7.98284 -0.42263,11.97426"/>
    <g>
     <path class="fil4" d="M11.96149 59.65181c0,0.04732 -0.03892,0.08569 -0.08691,0.08569 -0.04799,0 -0.08691,-0.03837 -0.08691,-0.08569l0.17382 0zm0 -17.48593l0 17.48593 -0.17382 0 0 -17.48593 0.17382 0zm-0.17382 0c0,-0.04732 0.03892,-0.08569 0.08691,-0.08569 0.04799,0 0.08691,0.03837 0.08691,0.08569l-0.17382 0z"/>
    </g>
    <g>
     <path class="fil4" d="M10.91323 41.5034c-0.03736,-0.03008 -0.04323,-0.08473 -0.01311,-0.12204 0.03012,-0.03731 0.08485,-0.04318 0.12221,-0.0131l-0.1091 0.13514zm0.90679 0.73004l-0.90679 -0.73004 0.1091 -0.13514 0.90679 0.73004 0.00076 0.13452 -0.10986 0.00062zm0.1091 -0.13514c0.03736,0.03008 0.04323,0.08473 0.01311,0.12204 -0.03012,0.03731 -0.08485,0.04318 -0.12221,0.0131l0.1091 -0.13514zm0.89476 -0.6019l-0.894 0.73642 -0.11062 -0.1339 0.894 -0.73642 0.11062 0.1339zm-0.11062 -0.1339c0.03703,-0.0305 0.09182,-0.02525 0.12236,0.01172 0.03054,0.03697 0.02529,0.09168 -0.01174,0.12218l-0.11062 -0.1339z"/>
    </g>
    <path class="fil5 str3" d="M11.98565 10.46671c-0.01162,0.0005 -0.02333,0.00091 -0.03515,0.00119 -0.00952,0.00026 -0.01913,0.00036 -0.02871,0.00053 -0.01574,0.00029 -0.03121,0.00087 -0.04722,0.00087 -0.00521,0 -0.01034,-0.00015 -0.01553,-0.00017 -0.00519,0.00002 -0.01031,0.00017 -0.01552,0.00017 -0.01601,0 -0.03152,-0.00054 -0.04722,-0.00087 -0.00956,-0.0002 -0.01919,-0.00028 -0.02872,-0.00053 -0.01183,-0.00028 -0.02352,-0.00069 -0.03515,-0.00119 -1.56489,-0.05164 -2.62951,-0.9451 -3.24313,-3.03483 -0.33124,-0.10837 -0.67942,-0.64544 -0.83871,-1.34157 -0.19031,-0.83164 -0.03919,-1.57614 0.33741,-1.66677 -0.15569,-2.97411 1.07639,-4.29699 3.87104,-4.33663 2.79523,-0.03965 4.02723,1.34916 3.87095,4.33661 0.37667,0.09054 0.52783,0.83508 0.3375,1.66679 -0.1593,0.69612 -0.50745,1.23318 -0.83869,1.34156 -0.61362,2.08972 -1.67825,2.9832 -3.24315,3.03484z"/>
    <g>
     <path class="fil3" d="M5.12188 27.93763l-0.19152 3.46114 0.79427 -1.40797c0.44047,-0.83515 -0.04987,-2.92487 -0.05456,-4.40754l-0.54819 2.35437z"/>
     <path id="1" class="fil4" d="M4.84358 31.39395l0.19152 -3.46114 0.17356 0.00964 -0.19152 3.46114 -0.01111 0.038 -0.16245 -0.04764zm0.17356 0.00964c-0.00265,0.04799 -0.04367,0.08475 -0.09159,0.08209 -0.04792,-0.00266 -0.08462,-0.04374 -0.08197,-0.09173l0.17356 0.00964zm0.78316 -1.36997l-0.79427 1.40797 -0.15134 -0.08564 0.79427 -1.40797 0.15252 0.08348 -0.00118 0.00216zm-0.15134 -0.08564c0.02361,-0.04185 0.07663,-0.05661 0.11842,-0.03297 0.04179,0.02364 0.05653,0.07676 0.03292,0.11861l-0.15134 -0.08564zm0.10575 -4.34495l-0.16928 -0.03954 0.17155 0.01949 0.0018 0.1391 0.00436 0.1425 0.00668 0.14558 0.00874 0.14831 0.01055 0.15066 0.01209 0.15268 0.0134 0.15431 0.01443 0.15564 0.01522 0.15658 0.01574 0.15721 0.01601 0.15747 0.016 0.15741 0.01576 0.15699 0.01524 0.15625 0.01447 0.15517 0.01342 0.15375 0.01214 0.15199 0.01057 0.14993 0.00875 0.14752 0.00667 0.14479 0.0043 0.14174 0.00169 0.1384 -0.00122 0.13472 -0.00439 0.13076 -0.00786 0.1265 -0.01163 0.12194 -0.01571 0.11712 -0.02014 0.11203 -0.02491 0.10665 -0.0301 0.101 -0.03574 0.09507 -0.04183 0.08871 -0.1537 -0.08132 0.03539 -0.07511 0.0311 -0.08279 0.02686 -0.09018 0.02269 -0.09719 0.01864 -0.10379 0.01475 -0.11 0.01103 -0.11578 0.00754 -0.12116 0.00423 -0.12614 0.00118 -0.13074 -0.00165 -0.13496 -0.00422 -0.1388 -0.00655 -0.14229 -0.00863 -0.1454 -0.01045 -0.14815 -0.01202 -0.15055 -0.01332 -0.15259 -0.01439 -0.15429 -0.01518 -0.15563 -0.01572 -0.15665 -0.016 -0.15729 -0.01601 -0.15761 -0.01578 -0.15759 -0.01528 -0.15722 -0.01451 -0.15652 -0.0135 -0.15549 -0.01221 -0.15412 -0.01067 -0.15242 -0.00886 -0.15039 -0.0068 -0.14804 -0.00444 -0.14538 -0.00184 -0.14234 0.17155 0.01949zm-0.17155 -0.01949c-0.00015,-0.04807 0.03864,-0.08718 0.08663,-0.08733 0.04799,-0.00015 0.08704,0.0387 0.08719,0.08677l-0.17382 0.00056zm-0.54592 2.33432l0.54819 -2.35437 0.16928 0.03954 -0.54819 2.35437 -0.17142 -0.02459 0.00214 -0.01495zm0.16928 0.03954c-0.0109,0.04681 -0.05764,0.07591 -0.10438,0.065 -0.04674,-0.01091 -0.0758,-0.05773 -0.0649,-0.10454l0.16928 0.03954z"/>
    </g>
   </g>
   <g>
    <rect class="fil1" x="0.84271" y="87.02017" width="22.90644" height="1.57507" rx="0.75959" ry="0.78753"/>
    <rect class="fil6" y="87.02017" width="3.21763" height="1.57507" rx="0.1067" ry="0.78753"/>
   </g>
  </g>
 </g>
</svg>
