<?xml version="1.0" encoding="UTF-8"?>
<!DOCTYPE svg PUBLIC "-//W3C//DTD SVG 1.1//EN" "http://www.w3.org/Graphics/SVG/1.1/DTD/svg11.dtd">
<!-- Creator: CorelDRAW 2017 -->
<svg xmlns="http://www.w3.org/2000/svg" xml:space="preserve" width="100%" height="100%" version="1.1" style="shape-rendering:geometricPrecision; text-rendering:geometricPrecision; image-rendering:optimizeQuality; fill-rule:evenodd; clip-rule:evenodd"
viewBox="0 0 24.04482 88.59524"
 xmlns:xlink="http://www.w3.org/1999/xlink">
 <defs>
  <style type="text/css">
   <![CDATA[
    .str0 {stroke:#FFCC29;stroke-width:0.2;stroke-miterlimit:22.9256}
    .str1 {stroke:#FFCC29;stroke-width:0.17383;stroke-miterlimit:22.9256}
    .fil2 {fill:none}
    .fil3 {fill:#FFF8AF}
    .fil0 {fill:#FFF8AF}
    .fil4 {fill:#F58634}
    .fil1 {fill:#F54029}
   ]]>
  </style>
 </defs>
 <g id="Camada_x0020_1">
  <metadata id="CorelCorpID_0Corel-Layer"/>
  <g id="_2427765942256">
   <g>
    <path class="fil0 str0" d="M12.47344 8.27186l-0.45103 0.01432 -0.45104 -0.01432 -0.01699 0.02918 -2.2382 0.07105 0.10023 1.70392c0.04509,0.76655 -0.86952,1.42883 -1.60369,1.65381l-3.10715 0.95219c-2.21889,0.67998 -3.49547,3.69313 -3.50807,6.01384l-0.05012 9.22122c-0.74077,1.60667 -1.19729,3.53818 -1.0023,6.21429 0.11693,1.68722 0.01159,3.66916 0.3508,5.06165 0.31864,1.30804 0.14928,1.7887 0.09596,2.90887 -0.03259,0.68473 0.1037,1.46524 0.05439,2.05254 -0.2382,2.83699 0.86868,3.59161 1.303,3.95912 0.67272,2.78835 1.47211,5.33883 2.20507,7.61752 0.19579,0.60869 0.39966,0.97703 0.52749,1.50917 0.10625,0.44232 0.14451,0.99786 0.22425,1.89867 0.0406,0.45877 0.33971,0.87349 0.44567,1.25439 0.17671,0.63523 0.17336,1.26576 0.15571,2.50427 -0.04784,3.35481 0.39734,6.33915 1.00231,8.77018 0.35854,1.44079 0.75608,2.89742 1.30299,4.36003 0.55887,1.49459 0.66821,2.50577 -0.20046,3.45796l-1.65381 1.75404c-0.29992,0.31809 -0.27288,1.19328 0.15035,1.30299l2.70623 0.70162c0.53825,0.13954 1.1063,-0.43194 1.40323,-0.90208l1.20276 -1.90438c0.6348,-1.41994 -0.06382,-1.54618 -0.20046,-2.3053 -0.16509,-0.91716 -0.06682,-1.70392 -0.10023,-2.55589 0.36894,-0.31978 0.66678,-1.35071 0.90208,-3.00692 0.23529,1.65621 0.53313,2.68714 0.90208,3.00692 -0.03341,0.85197 0.06485,1.63873 -0.10023,2.55589 -0.13664,0.75912 -0.83526,0.88536 -0.20046,2.3053l1.20276 1.90438c0.29693,0.47014 0.86498,1.04162 1.40323,0.90208l2.70623 -0.70162c0.42322,-0.10971 0.45026,-0.9849 0.15035,-1.30299l-1.65381 -1.75404c-0.86867,-0.95219 -0.75933,-1.96337 -0.20046,-3.45796 0.54691,-1.46261 0.94445,-2.91924 1.30299,-4.36003 0.60497,-2.43103 1.05015,-5.41537 1.00231,-8.77018 -0.01765,-1.23851 -0.02101,-1.86904 0.15571,-2.50427 0.10596,-0.3809 0.40506,-0.79562 0.44567,-1.25439 0.07974,-0.90081 0.118,-1.45635 0.22425,-1.89867 0.12783,-0.53214 0.33169,-0.90048 0.52749,-1.50917 0.73296,-2.27869 1.53235,-4.82917 2.20507,-7.61752 0.43432,-0.36751 1.5412,-1.12213 1.303,-3.95912 -0.04931,-0.5873 0.08698,-1.36781 0.05439,-2.05254 -0.05332,-1.12017 -0.22269,-1.60083 0.09595,-2.90887 0.33921,-1.39249 0.23387,-3.37443 0.35081,-5.06165 0.19499,-2.67611 -0.26154,-4.60762 -1.0023,-6.21429l-0.05012 -9.22122c-0.0126,-2.32071 -1.28919,-5.33386 -3.50807,-6.01384l-3.10715 -0.95219c-0.73417,-0.22498 -1.64878,-0.88726 -1.60369,-1.65381l0.10023 -1.70392 -2.2382 -0.07105 -0.017 -0.02918z"/>
    <path class="fil1" d="M11.37282 16.75539c0.11702,-0.53869 0.21524,-1.87291 -0.29693,-2.17702 -0.5873,-0.34871 -0.41098,-0.64381 -1.62228,-0.64381 -2.20717,0 -2.50518,-0.65375 -2.70253,1.71559 -0.04758,0.5712 -1.12744,1.48098 -0.59952,2.90332 0.50561,1.36222 1.17524,2.7206 2.9118,2.63938 0.72863,-0.03408 1.66597,0.63466 2.26798,-0.82481 0.10822,-0.26236 0.17507,-3.56542 0.04148,-3.61265z"/>
    <path class="fil1" d="M5.12779 16.30905c-0.7185,1.13454 -1.71134,2.48043 -1.82888,2.90748 -0.16614,0.60367 -0.6302,2.08266 -0.73588,2.02025 -0.37698,-0.22264 -0.19405,-4.50963 -0.1097,-4.85086 0.26109,-1.05616 1.10254,-2.67536 2.32613,-2.96833 2.52596,-0.6048 0.74522,2.26476 0.34833,2.89146z"/>
    <path class="fil1" d="M3.1868 25.45226c-0.00096,0.00083 -0.17671,0.92342 -0.41318,1.27517 -0.44986,0.66917 0.65357,1.22759 1.24675,-0.30588 0.13437,-0.34739 -0.1049,-4.35125 -0.1049,-5.10309 0,-0.23365 0.29138,-1.87392 -0.33631,-0.8688 -0.20256,0.32437 -0.47643,2.48183 -0.47643,3.01958 0,0.73226 0.08407,1.31964 0.08407,1.98302z"/>
    <path class="fil1" d="M4.20054 31.55027c-0.08683,0.19789 -0.56641,1.65693 -0.66782,1.80086 -0.66646,0.94593 -0.34271,-0.27321 -0.56532,-0.89683 -0.22397,-0.62746 -0.3761,-3.12723 0.11691,-3.67378 0.28637,-0.31745 0.27853,-0.92725 0.86279,-0.76991 0.44988,0.12115 0.44086,3.11248 0.25344,3.53966z"/>
    <path class="fil1" d="M2.34603 28.10069c-1.02987,0.17736 -1.00893,2.62119 -1.00893,3.4752 0,1.40134 0.0126,2.59692 0.1145,3.98206 0.07881,1.0713 0.17824,2.1991 0.25223,3.2582 0.09556,1.36754 0.44602,0.21195 0.44602,-0.48605 0,-1.89244 0.95403,-2.52832 1.00893,-3.8115 0.00979,-0.22891 -0.8688,-1.57233 -0.8688,-2.94271 0,-0.63864 -0.02355,-1.26416 0.16095,-1.89855 0.02311,-0.07945 0.14282,-1.61931 -0.1049,-1.57665z"/>
    <path class="fil1" d="M8.79196 27.40006c0,-1.10492 -0.01708,-2.87608 -0.35713,-3.86516 -0.13787,-0.401 -0.15413,-0.77145 -0.46042,-1.06498 0.00182,-0.01157 -1.60051,-2.26125 -2.12276,-1.77763 -1.00014,0.92613 0.68024,3.82299 0.89202,4.73395 0.25953,1.11633 0.56292,0.6218 0.56292,2.27489 0,1.89208 -0.08852,2.49999 -0.72147,4.25351 -0.27157,0.75238 0.20452,1.06871 0.77031,1.37246 0.47151,0.25313 1.14223,-1.03271 1.24035,-1.51739 0.31226,-1.54248 0.36433,-1.36802 0.36433,-3.08524 0,-0.85693 -0.06795,-0.62264 -0.16815,-1.32441z"/>
    <path class="fil1" d="M11.42638 38.35813c0.13512,0.68963 -0.38719,0.7463 0.20739,1.40128 0.05811,0.06403 0.31241,1.5663 -0.74228,-0.23381 -0.38584,-0.65853 -0.74042,-1.65351 -0.83597,-2.45666 -0.11644,-0.97875 -0.14253,-1.75171 -0.14253,-2.76734 0,-1.12924 -0.01886,-0.51174 0.24503,-1.48537 0.30602,-1.12911 0.24415,-2.33436 0.17776,-3.51524 -0.05859,-1.04223 0.01319,-1.07593 -0.11211,-2.4078 -0.14276,-1.51756 -1.01848,-2.77839 -0.61896,-3.52885 0.17855,-0.33537 1.17153,-0.4018 1.50618,0.27545 0.84874,1.71766 0.29723,5.39948 0.34351,7.37559 0.05433,2.32015 -0.35305,5.02406 -0.02802,7.34275z"/>
    <path class="fil1" d="M7.6429 36.67658c-0.18566,-0.42934 -0.8688,-1.97028 -0.8688,-0.58854 0,1.5007 -0.85719,0.51253 -0.23141,1.77283 0.26604,0.5358 1.91791,0.31525 1.35725,-0.81274 -0.05206,-0.10474 -0.2099,-0.26255 -0.25704,-0.37155z"/>
    <path class="fil1" d="M5.87727 52.03471c-0.0461,0.20749 0.99323,2.41688 1.14906,2.41021 0.94932,-0.04061 -0.08781,-1.72418 -0.13773,-2.29811 -0.00986,-0.11351 -0.73914,-2.60333 -0.84317,-3.16932 -0.05235,-0.28482 -0.37818,-0.82275 -0.44841,-1.48296 -0.23112,-2.1724 -0.47232,-5.49525 -0.56052,-7.70709 0,-0.84398 0.01171,-1.02571 0.08647,-1.80085 0.05441,-0.56409 0.68558,-4.67122 0.24024,-4.61944 -0.39923,0.04641 -1.0834,3.02199 -1.0834,3.61051 0,1.53255 -0.28282,3.04866 -0.08168,4.64987 0.18087,1.43977 -0.12439,3.12623 0.14013,4.74357 0.0771,0.47141 0.54112,2.65195 0.69104,3.00116 0.2869,0.66828 0.46966,1.80832 0.84317,2.58317l0.0048 0.07928z"/>
    <path class="fil1" d="M8.43483 44.37406c0.18499,0.80487 0.26316,1.07752 0.3267,1.94099 0.05099,0.69297 0.21787,1.6024 0.19858,2.36137 -0.02151,0.84666 0.01147,1.21082 -0.08648,2.0691 -0.09986,0.875 0.04108,1.96361 0.60055,2.62722 0.14417,0.171 0.62819,1.43926 -0.15694,0.99531 -0.09528,-0.05387 -1.71327,0.57114 -1.12103,-0.35072 0.59134,-0.92046 -0.23128,-2.20915 -0.30348,-3.19014 -0.0697,-0.94699 -0.42522,-2.71661 -0.77751,-3.56167 -0.52989,-1.27105 -0.54535,-4.98473 -0.36915,-5.79653 0.20519,-0.9453 1.52254,2.18189 1.68876,2.90507z"/>
    <path class="fil1" d="M11.27224 51.29202c0.0487,-0.36111 0.63018,-1.79848 -0.46242,-1.83569 -0.74169,-0.02526 -0.40226,2.20676 -0.55091,2.62482 -0.09877,0.27776 -0.01559,2.32993 0.28185,2.61841 0.88895,0.86215 0.47764,-1.47669 0.71026,-1.80327 0.03749,-0.05263 0.01128,-1.53051 0.02122,-1.60427z"/>
    <path class="fil1" d="M11.10408 46.03719c-0.05699,-0.57006 0.26883,-0.96844 -0.0092,-1.5134 -0.23257,-0.45582 0.36893,-2.30525 -0.5349,-2.55034 -0.21339,-0.05786 -0.7591,-0.577 -0.7591,-1.03455 0,-0.71447 -1.56501,-1.10491 -0.67742,1.23794 0.21173,0.55888 0.31341,1.29027 0.70545,1.82648 0.32334,0.44223 0.82569,2.08639 0.8664,2.66885 0.10662,1.52577 0.73234,0.81034 0.42999,0.04725 -0.03039,-0.07672 -0.00614,-0.53142 -0.02122,-0.68223z"/>
    <path class="fil1" d="M7.73154 72.38151c-0.25416,-0.31063 -0.91945,-2.33667 -0.90344,-2.80679 0.01518,-0.44565 -0.11848,-1.47688 -0.11848,-2.1674 0,-0.77425 -0.08886,-1.43213 -0.08886,-2.32482 0,-1.07579 0.02086,-1.37639 0.15064,-2.43145 0.00148,-0.01203 -0.05689,-2.23484 0.53317,-1.54028 0.70179,0.82606 0.58229,3.32924 0.47394,4.47274 -0.05899,0.62256 -0.41724,0.6008 -0.41724,2.16233 0,1.22061 -0.11892,2.45128 0.27421,3.55451 0.01771,0.04971 0.07357,1.05368 0.09606,1.08116z"/>
    <path class="fil1" d="M10.47147 67.67179c0,-0.95492 0.08239,-5.31125 -0.11341,-5.82811 -0.40813,-1.07738 -1.42513,0.13446 -1.39726,0.95294 0.05158,1.51463 -0.33077,0.91081 0.2886,2.57955 0.50137,1.3508 0.37868,5.54541 0.33344,7.20549 -0.00187,0.06847 0.52847,1.72256 0.44432,-0.24458 -0.00759,-0.17732 0.35544,-1.31611 0.35544,-2.10816 0,-0.40585 -0.04203,-2.33372 0.08887,-2.55713z"/>
    <path class="fil1" d="M12.53894 16.75539c-0.11702,-0.53869 -0.21524,-1.87291 0.29693,-2.17702 0.5873,-0.34871 0.41098,-0.64381 1.62228,-0.64381 2.20717,0 2.50518,-0.65375 2.70253,1.71559 0.04758,0.5712 1.12744,1.48098 0.59952,2.90332 -0.50561,1.36222 -1.17524,2.7206 -2.9118,2.63938 -0.72863,-0.03408 -1.66597,0.63466 -2.26798,-0.82481 -0.10822,-0.26236 -0.17507,-3.56542 -0.04148,-3.61265z"/>
    <path class="fil1" d="M18.78397 16.30905c0.7185,1.13454 1.71134,2.48043 1.82888,2.90748 0.16614,0.60367 0.6302,2.08266 0.73588,2.02025 0.37698,-0.22264 0.19405,-4.50963 0.1097,-4.85086 -0.26109,-1.05616 -1.10254,-2.67536 -2.32613,-2.96833 -2.52596,-0.6048 -0.74522,2.26476 -0.34833,2.89146z"/>
    <path class="fil1" d="M20.72496 25.45226c0.00096,0.00083 0.17671,0.92342 0.41318,1.27517 0.44986,0.66917 -0.65357,1.22759 -1.24675,-0.30588 -0.13438,-0.34739 0.1049,-4.35125 0.1049,-5.10309 0,-0.23365 -0.29138,-1.87392 0.33631,-0.8688 0.20256,0.32437 0.47643,2.48183 0.47643,3.01958 0,0.73226 -0.08407,1.31964 -0.08407,1.98302z"/>
    <path class="fil1" d="M19.71122 31.55027c0.08683,0.19789 0.56641,1.65693 0.66782,1.80086 0.66646,0.94593 0.34271,-0.27321 0.56532,-0.89683 0.22397,-0.62746 0.3761,-3.12723 -0.11691,-3.67378 -0.28637,-0.31745 -0.27853,-0.92725 -0.86279,-0.76991 -0.44989,0.12115 -0.44086,3.11248 -0.25344,3.53966z"/>
    <path class="fil1" d="M21.56573 28.10069c1.02987,0.17736 1.00893,2.62119 1.00893,3.4752 0,1.40134 -0.0126,2.59692 -0.1145,3.98206 -0.07881,1.0713 -0.17824,2.1991 -0.25224,3.2582 -0.09555,1.36754 -0.44601,0.21195 -0.44601,-0.48605 0,-1.89244 -0.95403,-2.52832 -1.00893,-3.8115 -0.0098,-0.22891 0.8688,-1.57233 0.8688,-2.94271 0,-0.63864 0.02355,-1.26416 -0.16095,-1.89855 -0.02311,-0.07945 -0.14282,-1.61931 0.1049,-1.57665z"/>
    <path class="fil1" d="M15.1198 27.40006c0,-1.10492 0.01708,-2.87608 0.35713,-3.86516 0.13787,-0.401 0.15413,-0.77145 0.46042,-1.06498 -0.00182,-0.01157 1.6005,-2.26125 2.12276,-1.77763 1.00014,0.92613 -0.68024,3.82299 -0.89203,4.73395 -0.25952,1.11633 -0.56291,0.6218 -0.56291,2.27489 0,1.89208 0.08852,2.49999 0.72146,4.25351 0.27158,0.75238 -0.20451,1.06871 -0.7703,1.37246 -0.47151,0.25313 -1.14223,-1.03271 -1.24035,-1.51739 -0.31226,-1.54248 -0.36434,-1.36802 -0.36434,-3.08524 0,-0.85693 0.06795,-0.62264 0.16816,-1.32441z"/>
    <path class="fil1" d="M12.48538 38.35813c-0.13512,0.68963 0.38719,0.7463 -0.20739,1.40128 -0.05811,0.06403 -0.31241,1.5663 0.74228,-0.23381 0.38584,-0.65853 0.74042,-1.65351 0.83597,-2.45666 0.11644,-0.97875 0.14253,-1.75171 0.14253,-2.76734 0,-1.12924 0.01886,-0.51174 -0.24503,-1.48537 -0.30602,-1.12911 -0.24415,-2.33436 -0.17776,-3.51524 0.05859,-1.04223 -0.01319,-1.07593 0.11211,-2.4078 0.14276,-1.51756 1.01848,-2.77839 0.61896,-3.52885 -0.17855,-0.33537 -1.17153,-0.4018 -1.50618,0.27545 -0.84874,1.71766 -0.29723,5.39948 -0.34351,7.37559 -0.05433,2.32015 0.35305,5.02406 0.02802,7.34275z"/>
    <path class="fil1" d="M16.26886 36.67658c0.18566,-0.42934 0.8688,-1.97028 0.8688,-0.58854 0,1.5007 0.85719,0.51253 0.23141,1.77283 -0.26604,0.5358 -1.91791,0.31525 -1.35725,-0.81274 0.05206,-0.10474 0.2099,-0.26255 0.25704,-0.37155z"/>
    <path class="fil1" d="M18.03449 52.03471c0.0461,0.20749 -0.99323,2.41688 -1.14906,2.41021 -0.94932,-0.04061 0.08781,-1.72418 0.13772,-2.29811 0.00987,-0.11351 0.73915,-2.60333 0.84318,-3.16932 0.05235,-0.28482 0.37818,-0.82275 0.44841,-1.48296 0.23112,-2.1724 0.47232,-5.49525 0.56052,-7.70709 0,-0.84398 -0.01171,-1.02571 -0.08648,-1.80085 -0.0544,-0.56409 -0.68557,-4.67122 -0.24023,-4.61944 0.39923,0.04641 1.0834,3.02199 1.0834,3.61051 0,1.53255 0.28282,3.04866 0.08168,4.64987 -0.18087,1.43977 0.12439,3.12623 -0.14013,4.74357 -0.0771,0.47141 -0.54112,2.65195 -0.69104,3.00116 -0.2869,0.66828 -0.46966,1.80832 -0.84317,2.58317l-0.0048 0.07928z"/>
    <path class="fil1" d="M15.47693 44.37406c-0.18499,0.80487 -0.26316,1.07752 -0.3267,1.94099 -0.051,0.69297 -0.21787,1.6024 -0.19859,2.36137 0.02152,0.84666 -0.01146,1.21082 0.08649,2.0691 0.09986,0.875 -0.04108,1.96361 -0.60055,2.62722 -0.14418,0.171 -0.6282,1.43926 0.15694,0.99531 0.09528,-0.05387 1.71327,0.57114 1.12103,-0.35072 -0.59134,-0.92046 0.23128,-2.20915 0.30348,-3.19014 0.0697,-0.94699 0.42522,-2.71661 0.77751,-3.56167 0.52989,-1.27105 0.54535,-4.98473 0.36915,-5.79653 -0.20519,-0.9453 -1.52254,2.18189 -1.68876,2.90507z"/>
    <path class="fil1" d="M12.63952 51.29202c-0.0487,-0.36111 -0.63018,-1.79848 0.46242,-1.83569 0.74169,-0.02526 0.40226,2.20676 0.55091,2.62482 0.09877,0.27776 0.01559,2.32993 -0.28185,2.61841 -0.88895,0.86215 -0.47764,-1.47669 -0.71026,-1.80327 -0.03749,-0.05263 -0.01128,-1.53051 -0.02122,-1.60427z"/>
    <path class="fil1" d="M12.80767 46.03719c0.057,-0.57006 -0.26882,-0.96844 0.00921,-1.5134 0.23257,-0.45582 -0.36893,-2.30525 0.5349,-2.55034 0.21339,-0.05786 0.75909,-0.577 0.75909,-1.03455 0,-0.71447 1.56502,-1.10491 0.67743,1.23794 -0.21174,0.55888 -0.31341,1.29027 -0.70546,1.82648 -0.32333,0.44223 -0.82568,2.08639 -0.86639,2.66885 -0.10662,1.52577 -0.73234,0.81034 -0.42999,0.04725 0.03039,-0.07672 0.00614,-0.53142 0.02121,-0.68223z"/>
    <path class="fil1" d="M16.18022 72.38151c0.25416,-0.31063 0.91945,-2.33667 0.90344,-2.80679 -0.01518,-0.44565 0.11848,-1.47688 0.11848,-2.1674 0,-0.77425 0.08886,-1.43213 0.08886,-2.32482 0,-1.07579 -0.02086,-1.37639 -0.15064,-2.43145 -0.00148,-0.01203 0.05688,-2.23484 -0.53317,-1.54028 -0.70179,0.82606 -0.5823,3.32924 -0.47394,4.47274 0.05899,0.62256 0.41724,0.6008 0.41724,2.16233 0,1.22061 0.11892,2.45128 -0.27421,3.55451 -0.01772,0.04971 -0.07358,1.05368 -0.09606,1.08116z"/>
    <path class="fil1" d="M13.44029 67.67179c0,-0.95492 -0.08239,-5.31125 0.11341,-5.82811 0.40812,-1.07738 1.42513,0.13446 1.39726,0.95294 -0.05158,1.51463 0.33077,0.91081 -0.2886,2.57955 -0.50137,1.3508 -0.37868,5.54541 -0.33344,7.20549 0.00187,0.06847 -0.52847,1.72256 -0.44432,-0.24458 0.00759,-0.17732 -0.35545,-1.31611 -0.35545,-2.10816 0,-0.40585 0.04204,-2.33372 -0.08886,-2.55713z"/>
    <path class="fil2 str0" d="M1.94923 48.11354c-0.60244,-5.33822 -0.36756,-9.83995 1.63361,-14.21115 1.40276,-3.06409 1.58122,-4.76789 0.97238,-6.78717 -0.7476,-2.47951 -0.34648,-5.25066 -0.25057,-7.96834"/>
    <path class="fil2 str0" d="M22.09559 48.11354c0.60244,-5.33822 0.36756,-9.83995 -1.63361,-14.21115 -1.40276,-3.06409 -1.58122,-4.76789 -0.97238,-6.78717 0.7476,-2.47951 0.34647,-5.25066 0.25057,-7.96834"/>
   </g>
   <path class="fil3 str1" d="M12.12816 10.46671c-0.01162,0.0005 -0.02333,0.00091 -0.03515,0.00119 -0.00953,0.00026 -0.01914,0.00036 -0.02872,0.00053 -0.01574,0.00029 -0.03121,0.00087 -0.04722,0.00087 -0.0052,0 -0.01033,-0.00015 -0.01552,-0.00017 -0.0052,0.00002 -0.01032,0.00017 -0.01552,0.00017 -0.01601,0 -0.03153,-0.00054 -0.04722,-0.00087 -0.00957,-0.0002 -0.0192,-0.00028 -0.02872,-0.00053 -0.01183,-0.00028 -0.02353,-0.00069 -0.03515,-0.00119 -1.56489,-0.05164 -2.62952,-0.9451 -3.24314,-3.03483 -0.33124,-0.10837 -0.67941,-0.64544 -0.83871,-1.34157 -0.19031,-0.83164 -0.03919,-1.57614 0.33741,-1.66677 -0.15569,-2.97411 1.07639,-4.29699 3.87105,-4.33663 2.79522,-0.03965 4.02723,1.34916 3.87095,4.33661 0.37666,0.09054 0.52782,0.83508 0.3375,1.66679 -0.1593,0.69612 -0.50746,1.23318 -0.8387,1.34156 -0.61361,2.08972 -1.67824,2.9832 -3.24314,3.03484z"/>
   <g>
    <rect class="fil1" x="0.99054" y="87.02017" width="22.90644" height="1.57507" rx="0.75959" ry="0.78753"/>
    <rect class="fil4" x="0.14783" y="87.02017" width="9.49966" height="1.57507" rx="0.31501" ry="0.78753"/>
   </g>
  </g>
 </g>
</svg>
