<?xml version="1.0" encoding="UTF-8"?>
<!DOCTYPE svg PUBLIC "-//W3C//DTD SVG 1.1//EN" "http://www.w3.org/Graphics/SVG/1.1/DTD/svg11.dtd">
<!-- Creator: CorelDRAW 2017 -->
<svg xmlns="http://www.w3.org/2000/svg" xml:space="preserve" width="100%" height="100%" version="1.1" style="shape-rendering:geometricPrecision; text-rendering:geometricPrecision; image-rendering:optimizeQuality; fill-rule:evenodd; clip-rule:evenodd"
viewBox="0 0 5.23676 5.89475"
 xmlns:xlink="http://www.w3.org/1999/xlink">
 <defs>
  <style type="text/css">
   <![CDATA[
    .str0 {stroke:#FEFEFE;stroke-width:0.17435;stroke-miterlimit:22.9256}
    .fil0 {fill:none}
    .fil1 {fill:#201E1E}
   ]]>
  </style>
 </defs>
 <g id="Camada_x0020_1">
  <metadata id="CorelCorpID_0Corel-Layer"/>
  <g id="_1752448144992">
   <path class="fil0 str0" d="M2.82565 0.14425l2.11667 1.22206c0.13182,0.07611 0.20727,0.20679 0.20727,0.35901l0 2.44411c0,0.15222 -0.07545,0.2829 -0.20727,0.35901l-2.11667 1.22206c-0.13182,0.07611 -0.28272,0.07611 -0.41454,0l-2.11667 -1.22206c-0.13182,-0.07611 -0.20727,-0.20679 -0.20727,-0.35901l0 -2.44411c0,-0.15222 0.07545,-0.2829 0.20727,-0.35901l2.11667 -1.22206c0.13182,-0.07611 0.28272,-0.07611 0.41454,0z"/>
   <g>
    <path class="fil1" d="M2.49844 1.75507l0 0.35275 0.23988 0 0 -0.35275c0.18637,0 0.44271,0.11259 0.58457,0.2197 0.02727,0.02058 0.04787,0.03668 0.07565,0.05839 0.08241,0.0644 0.19032,0.198 0.24591,0.29028 0.07783,0.12922 0.16623,0.33362 0.16623,0.50399l-0.35275 0 0 0.23988 0.35275 0c0,0.13592 -0.07012,0.32375 -0.1175,0.41867 -0.02839,0.05687 -0.06603,0.118 -0.1022,0.1659 -0.08878,0.11759 -0.1505,0.17931 -0.26809,0.26809 -0.14201,0.10723 -0.39829,0.2197 -0.58457,0.2197l0 -0.35275 -0.23988 0 0 0.35275c-0.13315,0 -0.32661,-0.07028 -0.41875,-0.11742l-0.16582 -0.10228c-0.06383,-0.04819 -0.1609,-0.12999 -0.2097,-0.19244 -0.02171,-0.02778 -0.03781,-0.04838 -0.05839,-0.07565 -0.10718,-0.14196 -0.2197,-0.39793 -0.2197,-0.58457l0.35275 0 0 -0.23988 -0.35275 0c0,-0.19901 0.1269,-0.47329 0.2458,-0.62197 0.01239,-0.01549 0.01835,-0.02025 0.03232,-0.03823l0.13404 -0.13404c0.08485,-0.06591 0.13202,-0.10603 0.24157,-0.16057 0.09548,-0.04754 0.28188,-0.11755 0.41863,-0.11755zm0 -0.24693c-0.15416,0 -0.38455,0.07566 -0.51502,0.1411 -0.36735,0.18426 -0.6379,0.49977 -0.75407,0.89681 -0.02065,0.07059 -0.0502,0.19511 -0.0502,0.28138l-0.36686 0 0 0.23988 0.36686 0c0,0.15416 0.07566,0.38455 0.1411,0.51502 0.19376,0.38631 0.49277,0.62417 0.89686,0.75402 0.06266,0.02013 0.20326,0.05025 0.28133,0.05025l0 0.36686 0.23988 0 0 -0.36686c0.07738,0 0.21555,-0.02974 0.27607,-0.04846 0.08527,-0.0264 0.16547,-0.05581 0.23895,-0.09264 0.15131,-0.07584 0.27147,-0.16212 0.38626,-0.27691 0.11189,-0.1119 0.19978,-0.23202 0.27456,-0.38156 0.06639,-0.13279 0.14345,-0.36524 0.14345,-0.51972l0.36686 0 0 -0.23988 -0.36686 0c0,-0.07702 -0.02974,-0.21594 -0.04849,-0.27604 -0.02721,-0.0872 -0.05495,-0.16384 -0.09261,-0.23898 -0.0525,-0.10473 -0.11713,-0.2099 -0.19573,-0.29812 -0.19654,-0.22063 -0.40612,-0.36965 -0.70108,-0.45595 -0.07059,-0.02065 -0.19511,-0.0502 -0.28138,-0.0502l0 -0.36686 -0.23988 0 0 0.36686z"/>
    <path class="fil1" d="M2.37851 2.94737c0,-0.19764 0.24724,-0.32868 0.40756,-0.16769 0.22406,0.22501 -0.11468,0.55474 -0.33186,0.33891 -0.04088,-0.04062 -0.0757,-0.09364 -0.0757,-0.17122zm0.21165 -0.47974c-0.00837,0.00201 -0.03818,0.00015 -0.05379,0.00265 -0.26976,0.04311 -0.46891,0.33517 -0.38289,0.61041 0.0102,0.03266 0.01997,0.05652 0.03446,0.08547 0.13696,0.27346 0.5151,0.38013 0.78862,0.10412 0.13641,-0.13766 0.1611,-0.36425 0.07226,-0.5417 -0.03206,-0.06403 -0.05954,-0.09062 -0.10761,-0.13932 -0.03907,-0.03957 -0.09347,-0.07212 -0.14735,-0.09251 -0.08659,-0.03277 -0.08103,-0.02167 -0.1515,-0.03245 -0.05304,-0.00811 -0.04804,0.00233 -0.0522,0.00333z"/>
   </g>
  </g>
 </g>
</svg>
