<?xml version="1.0" encoding="UTF-8"?>
<!DOCTYPE svg PUBLIC "-//W3C//DTD SVG 1.1//EN" "http://www.w3.org/Graphics/SVG/1.1/DTD/svg11.dtd">
<!-- Creator: CorelDRAW 2017 -->
<svg xmlns="http://www.w3.org/2000/svg" xml:space="preserve" width="100%" height="100%" version="1.1" style="shape-rendering:geometricPrecision; text-rendering:geometricPrecision; image-rendering:optimizeQuality; fill-rule:evenodd; clip-rule:evenodd"
viewBox="0 0 10.40831 9.29128"
 xmlns:xlink="http://www.w3.org/1999/xlink">
 <defs>
  <style type="text/css">
   <![CDATA[
    .str0 {stroke:#201E1E;stroke-width:0.15;stroke-miterlimit:22.9256}
    .str1 {stroke:#FEFEFE;stroke-width:0.09982;stroke-linecap:round;stroke-linejoin:round;stroke-miterlimit:22.9256}
    .str3 {stroke:#FEFEFE;stroke-width:0.09982;stroke-linecap:round;stroke-linejoin:round;stroke-miterlimit:22.9256}
    .str4 {stroke:#FEFEFE;stroke-width:0.09982;stroke-linecap:round;stroke-linejoin:round;stroke-miterlimit:22.9256}
    .str2 {stroke:#FEFEFE;stroke-width:0.09982;stroke-linecap:round;stroke-linejoin:round;stroke-miterlimit:22.9256}
    .str5 {stroke:#FEFEFE;stroke-width:0.09982;stroke-linecap:round;stroke-linejoin:round;stroke-miterlimit:22.9256}
    .fil1 {fill:none}
    .fil0 {fill:#F54029}
    .fil2 {fill:#FEFEFE;fill-rule:nonzero}
   ]]>
  </style>
 </defs>
 <g id="Camada_x0020_1">
  <metadata id="CorelCorpID_0Corel-Layer"/>
  <g id="_2427766547152">
   <path class="fil0" d="M3.13341 0.475c-0.21838,0 -0.39658,0.10288 -0.50577,0.29201l-2.07075 3.58663c-0.10919,0.18912 -0.10918,0.39488 0.00001,0.58401l2.07074 3.58662c0.10919,0.18913 0.28738,0.29202 0.50576,0.29201l4.14149 0c0.21838,0 0.39658,-0.10288 0.50577,-0.29201l2.07075 -3.58663c0.10919,-0.18912 0.10918,-0.39488 -0.00001,-0.58401l-2.07074 -3.58662c-0.10919,-0.18913 -0.28738,-0.29202 -0.50576,-0.29201l-4.14149 0z"/>
   <path class="fil1 str0" d="M3.13341 0.075l4.14149 0c0.36131,0 0.67152,0.1791 0.85217,0.49201l2.07074 3.58662c0.18066,0.3129 0.18066,0.6711 0,0.98401l-2.07074 3.58664c-0.18066,0.3129 -0.49087,0.492 -0.85218,0.492l-4.14149 0c-0.36131,0 -0.67152,-0.1791 -0.85217,-0.49201l-2.07074 -3.58662c-0.18066,-0.3129 -0.18066,-0.6711 0,-0.98401l2.07074 -3.58664c0.18066,-0.3129 0.49087,-0.492 0.85218,-0.492z"/>
   <g>
    <path class="fil1 str1" d="M3.54964 0.95332l0 0.74272c0,0.40427 -0.13164,0.41935 -0.4073,0.79064 -0.62637,0.84364 -0.63917,1.60003 0.08385,2.12033 0.31541,1.5057 0.11983,2.96261 -0.26354,3.37817"/>
    <path class="fil1 str2" d="M6.85867 0.95332l0 0.74272c0,0.40427 0.13164,0.41935 0.4073,0.79064 0.62637,0.84364 0.63917,1.60003 -0.08385,2.12033 -0.31541,1.5057 -0.11983,2.96261 0.26354,3.37817"/>
    <g>
     <path class="fil2" d="M6.17134 0.9653c0,-0.02728 0.02225,-0.04941 0.04968,-0.04941 0.02743,0 0.04968,0.02213 0.04968,0.04941l-0.09936 0zm0 0.84475l0 -0.84475 0.09936 0 0 0.84475 0 0 -0.09936 0zm-0.96856 0.73801l0 -0.09882 0 0 0.05047 -0.00087 0.04982 -0.00258 0.04908 -0.00425 0.04829 -0.00587 0.04743 -0.00746 0.04651 -0.00898 0.04552 -0.01047 0.04446 -0.01192 0.04334 -0.0133 0.04214 -0.01465 0.04088 -0.01595 0.03957 -0.01719 0.03817 -0.0184 0.03672 -0.01953 0.03519 -0.02063 0.03361 -0.02168 0.03195 -0.02266 0.03024 -0.02359 0.02848 -0.02447 0.02665 -0.02529 0.02476 -0.02606 0.02283 -0.02676 0.02084 -0.02742 0.01881 -0.02801 0.01673 -0.02857 0.01463 -0.02909 0.01248 -0.02955 0.01031 -0.02998 0.00808 -0.03041 0.00584 -0.03081 0.00353 -0.03118 0.0012 -0.03161 0.09936 0 -0.00146 0.03899 -0.00437 0.0385 -0.00718 0.03791 -0.0099 0.03723 -0.01253 0.0365 -0.01508 0.03569 -0.01751 0.03481 -0.01985 0.03391 -0.02211 0.03295 -0.02428 0.03194 -0.02635 0.0309 -0.02836 0.02984 -0.03027 0.02873 -0.03212 0.02761 -0.03388 0.02643 -0.03559 0.02524 -0.03723 0.024 -0.03879 0.02275 -0.04028 0.02143 -0.04171 0.0201 -0.04309 0.01873 -0.04438 0.01731 -0.04564 0.01587 -0.0468 0.01436 -0.04792 0.01284 -0.04898 0.01127 -0.04995 0.00964 -0.05087 0.008 -0.05175 0.00629 -0.05252 0.00455 -0.05326 0.00276 -0.05391 0.00093 0 0zm0 -0.04941l0 0 0 0 0 0 0 0.04941 0 -0.04941zm-1.06792 -0.6886l0.09936 0 0 0 0.0012 0.03161 0.00353 0.03119 0.00584 0.0308 0.00808 0.03042 0.01031 0.02997 0.01248 0.02955 0.01463 0.02909 0.01673 0.02857 0.01881 0.02801 0.02084 0.02742 0.02283 0.02677 0.02476 0.02605 0.02665 0.02529 0.02848 0.02447 0.03024 0.02359 0.03195 0.02266 0.03361 0.02168 0.0352 0.02063 0.03671 0.01954 0.03816 0.01839 0.03958 0.01719 0.04088 0.01595 0.04214 0.01465 0.04334 0.01331 0.04445 0.01191 0.04553 0.01047 0.04651 0.00898 0.04743 0.00746 0.04829 0.00587 0.04908 0.00425 0.04982 0.00258 0.05047 0.00087 0 0.09882 -0.05391 -0.00093 -0.05326 -0.00276 -0.05252 -0.00455 -0.05175 -0.00629 -0.05087 -0.008 -0.04995 -0.00964 -0.04897 -0.01127 -0.04793 -0.01283 -0.0468 -0.01437 -0.04564 -0.01587 -0.04438 -0.01731 -0.04308 -0.01873 -0.04172 -0.02009 -0.04029 -0.02144 -0.03878 -0.02275 -0.03723 -0.024 -0.03559 -0.02524 -0.03388 -0.02643 -0.03212 -0.02761 -0.03027 -0.02873 -0.02836 -0.02983 -0.02635 -0.03091 -0.02428 -0.03194 -0.02211 -0.03295 -0.01985 -0.03391 -0.01751 -0.03481 -0.01508 -0.03567 -0.01253 -0.03651 -0.0099 -0.03724 -0.00718 -0.0379 -0.00437 -0.03851 -0.00146 -0.03899 0 0zm0.09936 -0.84475l0 0.84475 -0.09936 0 0 -0.84475 0.09936 0zm-0.09936 0c0,-0.02728 0.02225,-0.04941 0.04968,-0.04941 0.02743,0 0.04968,0.02213 0.04968,0.04941l-0.09936 0z"/>
    </g>
    <line class="fil1 str3" x1="4.18454" y1="1.26477" x2="3.77724" y2= "1.26477" />
    <line class="fil1 str3" x1="6.22102" y1="1.81005" x2="6.60436" y2= "1.81005" />
    <line class="fil1 str3" x1="7.04111" y1="2.21041" x2="6.7002" y2= "2.21041" />
    <g>
     <path class="fil2" d="M3.94495 2.19717c0.02565,0 0.04645,0.02235 0.04645,0.04991 0,0.02756 -0.0208,0.04991 -0.04645,0.04991l0 -0.09982zm-0.58699 0l0.58699 0 0 0.09982 -0.58699 0 0 -0.09982zm0 0.09982c-0.02565,0 -0.04645,-0.02235 -0.04645,-0.04991 0,-0.02756 0.0208,-0.04991 0.04645,-0.04991l0 0.09982z"/>
    </g>
    <path class="fil1 str3" d="M7.44291 3.69658c-0.07347,0.34485 -0.22202,0.56956 -0.45521,0.65886"/>
    <path class="fil1 str4" d="M3.06178 3.53924c0.03753,-0.36881 0.15986,-0.70883 0.47917,-1.0422"/>
    <line class="fil1 str3" x1="3.22619" y1="4.60701" x2="7.18212" y2= "4.60701" />
    <line class="fil1 str3" x1="3.89703" y1="4.34346" x2="2.95972" y2= "4.34346" />
    <line class="fil1 str3" x1="5.37049" y1="4.83462" x2="4.8434" y2= "4.83462" />
    <line class="fil1 str3" x1="4.32829" y1="4.8466" x2="3.2689" y2= "4.8466" />
    <line class="fil1 str3" x1="3.65745" y1="6.66745" x2="3.36202" y2= "6.66745" />
    <line class="fil1 str3" x1="6.68822" y1="7.73362" x2="7.27199" y2= "7.73362" />
    <line class="fil1 str3" x1="6.00539" y1="7.72164" x2="4.4361" y2= "7.72164" />
    <line class="fil1 str3" x1="5.20278" y1="5.18202" x2="5.20278" y2= "6.70339" />
    <line class="fil1 str3" x1="5.22674" y1="7.03881" x2="5.22674" y2= "7.30236" />
    <path class="fil1 str3" d="M4.29235 5.33775c-0.25487,0.53543 -0.33614,1.15766 -0.14375,1.91669"/>
    <path class="fil1 str5" d="M6.16266 5.33775c0.25487,0.53543 0.33614,1.15766 0.14375,1.91669"/>
   </g>
  </g>
 </g>
</svg>
