<?xml version="1.0" encoding="UTF-8"?>
<!DOCTYPE svg PUBLIC "-//W3C//DTD SVG 1.1//EN" "http://www.w3.org/Graphics/SVG/1.1/DTD/svg11.dtd">
<!-- Creator: CorelDRAW 2017 -->
<svg xmlns="http://www.w3.org/2000/svg" xml:space="preserve" width="100%" height="100%" version="1.1" style="shape-rendering:geometricPrecision; text-rendering:geometricPrecision; image-rendering:optimizeQuality; fill-rule:evenodd; clip-rule:evenodd"
viewBox="0 0 10.40831 9.29128"
 xmlns:xlink="http://www.w3.org/1999/xlink">
 <defs>
  <style type="text/css">
   <![CDATA[
    .str0 {stroke:#201E1E;stroke-width:0.15;stroke-miterlimit:22.9256}
    .str1 {stroke:#FEFEFE;stroke-width:0.09092;stroke-linecap:round;stroke-linejoin:round;stroke-miterlimit:22.9256}
    .fil1 {fill:none}
    .fil0 {fill:#F54029}
   ]]>
  </style>
 </defs>
 <g id="Camada_x0020_1">
  <metadata id="CorelCorpID_0Corel-Layer"/>
  <path class="fil0" d="M3.13341 0.475c-0.21838,0 -0.39658,0.10288 -0.50577,0.29201l-2.07075 3.58663c-0.10919,0.18912 -0.10918,0.39488 0.00001,0.58401l2.07074 3.58662c0.10919,0.18913 0.28738,0.29202 0.50576,0.29201l4.14149 0c0.21838,0 0.39658,-0.10288 0.50577,-0.29201l2.07075 -3.58663c0.10919,-0.18912 0.10918,-0.39488 -0.00001,-0.58401l-2.07074 -3.58662c-0.10919,-0.18913 -0.28738,-0.29202 -0.50576,-0.29201l-4.14149 0z"/>
  <path class="fil1 str0" d="M3.13341 0.075l4.14149 0c0.36131,0 0.67152,0.1791 0.85217,0.49201l2.07074 3.58662c0.18066,0.3129 0.18066,0.6711 0,0.98401l-2.07074 3.58664c-0.18066,0.3129 -0.49087,0.492 -0.85218,0.492l-4.14149 0c-0.36131,0 -0.67152,-0.1791 -0.85217,-0.49201l-2.07074 -3.58662c-0.18066,-0.3129 -0.18066,-0.6711 0,-0.98401l2.07074 -3.58664c0.18066,-0.3129 0.49087,-0.492 0.85218,-0.492z"/>
  <g id="_2427765926224">
   <path class="fil1 str1" d="M7.6429 3.92454c-0.74357,-0.07443 -1.32982,0.27002 -1.76043,0.95193"/>
   <path class="fil1 str1" d="M6.02591 5.71104c0.25967,0.34341 0.68357,0.68679 1.29098,1.03018"/>
   <path class="fil1 str1" d="M6.07808 4.55046c-0.88576,-0.36727 -1.56149,-0.16742 -2.09948,0.40425"/>
   <path class="fil1 str1" d="M4.1742 4.73303c0.01305,-0.6042 0.03396,-1.20828 0.03912,-1.81259 0.00238,-0.27896 0.16889,-0.25905 0.28308,-0.25161 0.20519,0.01336 0.27396,-0.0841 0.47758,-0.11114 0.17578,-0.02333 0.34559,-0.03317 0.37816,-0.1815 0.02448,-0.11151 -0.03187,-0.20832 -0.38248,-0.21209 0.44396,-0.03032 0.32544,-0.25256 0.08052,-0.45501 -0.13129,-0.10848 -0.3031,-0.19058 -0.45163,-0.18587 -0.19435,0.00617 -0.39452,0.11472 -0.5462,0.29351 -0.76606,0.90285 -1.17858,1.94883 -1.50817,3.07278 -0.17156,0.5851 -0.15762,0.87734 0.22168,1.03018 1.44551,0.58246 2.45444,0.74442 3.54694,0.10432"/>
  </g>
 </g>
</svg>
