<?xml version="1.0" encoding="UTF-8"?>
<!DOCTYPE svg PUBLIC "-//W3C//DTD SVG 1.1//EN" "http://www.w3.org/Graphics/SVG/1.1/DTD/svg11.dtd">
<!-- Creator: CorelDRAW 2017 -->
<svg xmlns="http://www.w3.org/2000/svg" xml:space="preserve" width="100%" height="100%" version="1.1" style="shape-rendering:geometricPrecision; text-rendering:geometricPrecision; image-rendering:optimizeQuality; fill-rule:evenodd; clip-rule:evenodd"
viewBox="0 0 11.54558 7.86911"
 xmlns:xlink="http://www.w3.org/1999/xlink">
 <defs>
  <style type="text/css">
   <![CDATA[
    .str0 {stroke:#D2AE6D;stroke-width:0.43312;stroke-linecap:round;stroke-linejoin:round;stroke-miterlimit:22.9256}
    .fil0 {fill:none}
    .fil1 {fill:#D2AE6D;fill-rule:nonzero}
   ]]>
  </style>
 </defs>
 <g id="Camada_x0020_1">
  <metadata id="CorelCorpID_0Corel-Layer"/>
  <g id="_1752664043472">
   <g>
    <path class="fil0 str0" d="M11.14226 7.30391l-2.41786 -1.49604 -1.37516 -0.58935c-0.4583,-0.19642 -1.34289,-0.37292 -1.87385,0.09063l-0.95202 0.83116c-0.23529,0.20541 -0.65752,0.10951 -0.93693,-0.03021l-0.72534 -0.36267c-0.31534,-0.15768 -0.6486,-0.30111 -1.14849,-0.04535l-1.2996 0.6649"/>
   </g>
   <g>
    <path class="fil0 str0" d="M0.21655 5.30917l1.64718 -0.64979c0.31397,-0.12385 0.70521,-0.15475 1.01246,-0.01511l0.33247 0.15111c0.65715,0.29868 0.75531,-0.29051 0.78581,-0.58934l0.07555 -0.74049c0.07088,-0.69472 0.76381,-1.45281 1.87384,-0.9369l1.07292 0.49867c0.2738,0.12723 0.57345,0.29381 0.84625,0.42314 0.63871,0.30275 0.89176,-0.137 0.66491,-0.33247l-0.98225 -0.84625c-0.27835,-0.23982 -0.56806,-0.60035 -0.58935,-0.96713 -0.01254,-0.21626 0.00143,-0.43035 0.51379,-0.28714 0.82925,0.23176 1.36725,0.98831 1.90406,1.60185"/>
   </g>
   <g>
    <path class="fil0 str0" d="M4.19091 2.01486c-0.30111,-0.47529 -0.80706,-0.62287 -1.51116,-0.45337 -0.04727,0.59747 0.20846,1.03455 0.84625,1.26939"/>
   </g>
   <g>
    <path class="fil0 str0" d="M8.43254 0.93468c0.08747,-0.30615 0.26343,-0.17438 0.53363,0.02235 0.51615,0.37584 0.95163,0.8801 1.10883,1.39752 0.57311,0.29606 0.83549,0.55028 1.0386,1.0131 0.06722,0.15317 0.02532,0.38623 0.1527,0.56637 0.19452,0.27505 -0.08994,0.65661 -0.48672,0.77069 -0.40778,0.11722 -0.57752,-0.12554 -0.86137,-0.07556 -0.22604,0.03981 -0.35494,0.24563 -0.48358,0.39291 0.62463,0.53646 1.33049,0.77509 1.87386,1.25741"/>
   </g>
   <g>
    <line class="fil0 str0" x1="5.46028" y1="0.21656" x2="2.48331" y2= "0.21656" />
   </g>
   <g>
    <path class="fil1" d="M1.6975 0.00325c0.1196,0 0.21656,0.09551 0.21656,0.21331 0,0.1178 -0.09696,0.21331 -0.21656,0.21331l0 -0.42662zm-0.39291 0l0.39291 0 0 0.42662 -0.39291 0 0 -0.42662zm0 0.42662c-0.1196,0 -0.21656,-0.09551 -0.21656,-0.21331 0,-0.1178 0.09696,-0.21331 0.21656,-0.21331l0 0.42662z"/>
   </g>
   <g>
    <path class="fil1" d="M0.66087 0.00325c0.1196,0 0.21656,0.09551 0.21656,0.21331 0,0.1178 -0.09696,0.21331 -0.21656,0.21331l0 -0.42662zm-0.39291 0l0.39291 0 0 0.42662 -0.39291 0 0 -0.42662zm0 0.42662c-0.1196,0 -0.21656,-0.09551 -0.21656,-0.21331 0,-0.1178 0.09696,-0.21331 0.21656,-0.21331l0 0.42662z"/>
   </g>
   <g>
    <path class="fil1" d="M7.4399 7.43383c0.1196,0 0.21656,0.09745 0.21656,0.21764 0,0.12019 -0.09696,0.21764 -0.21656,0.21764l0 -0.43528zm-2.57708 0l2.57708 0 0 0.43528 -2.57708 0 0 -0.43528zm0 0.43528c-0.1196,0 -0.21656,-0.09745 -0.21656,-0.21764 0,-0.12019 0.09696,-0.21764 0.21656,-0.21764l0 0.43528z"/>
   </g>
   <g>
    <path class="fil1" d="M4.18257 7.44297c0.1196,0 0.21656,0.09335 0.21656,0.2085 0,0.11515 -0.09696,0.2085 -0.21656,0.2085l0 -0.417zm-0.34013 0l0.34013 0 0 0.417 -0.34013 0 0 -0.417zm0 0.417c-0.1196,0 -0.21656,-0.09335 -0.21656,-0.2085 0,-0.11515 0.09696,-0.2085 0.21656,-0.2085l0 0.417z"/>
   </g>
   <g>
    <path class="fil1" d="M3.13779 7.44297c0.1196,0 0.21656,0.09335 0.21656,0.2085 0,0.11515 -0.09696,0.2085 -0.21656,0.2085l0 -0.417zm-0.34012 0l0.34012 0 0 0.417 -0.34012 0 0 -0.417zm0 0.417c-0.1196,0 -0.21656,-0.09335 -0.21656,-0.2085 0,-0.11515 0.09696,-0.2085 0.21656,-0.2085l0 0.417z"/>
   </g>
  </g>
 </g>
</svg>
