<?xml version="1.0" encoding="UTF-8"?>
<!DOCTYPE svg PUBLIC "-//W3C//DTD SVG 1.1//EN" "http://www.w3.org/Graphics/SVG/1.1/DTD/svg11.dtd">
<!-- Creator: CorelDRAW 2017 -->
<svg xmlns="http://www.w3.org/2000/svg" xml:space="preserve" width="100%" height="100%" version="1.1" style="shape-rendering:geometricPrecision; text-rendering:geometricPrecision; image-rendering:optimizeQuality; fill-rule:evenodd; clip-rule:evenodd"
viewBox="0 0 5.23676 5.89475"
 xmlns:xlink="http://www.w3.org/1999/xlink">
 <defs>
  <style type="text/css">
   <![CDATA[
    .str0 {stroke:#FEFEFE;stroke-width:0.17435;stroke-miterlimit:22.9256}
    .fil0 {fill:none}
    .fil1 {fill:#201E1E}
   ]]>
  </style>
 </defs>
 <g id="Camada_x0020_1">
  <metadata id="CorelCorpID_0Corel-Layer"/>
  <g id="_1752534959712">
   <path class="fil0 str0" d="M2.82565 0.14425l2.11667 1.22206c0.13182,0.07611 0.20727,0.20679 0.20727,0.35901l0 2.44411c0,0.15222 -0.07545,0.2829 -0.20727,0.35901l-2.11667 1.22206c-0.13182,0.07611 -0.28272,0.07611 -0.41454,0l-2.11667 -1.22206c-0.13182,-0.07611 -0.20727,-0.20679 -0.20727,-0.35901l0 -2.44411c0,-0.15222 0.07545,-0.2829 0.20727,-0.35901l2.11667 -1.22206c0.13182,-0.07611 0.28272,-0.07611 0.41454,0z"/>
   <g>
    <path class="fil1" d="M2.25639 1.7833c-0.17877,-0.01487 -0.37042,0.02936 -0.4809,0.17719 -0.02425,0.03244 -0.02562,0.03098 -0.04295,0.06673 -0.02228,0.04595 -0.01088,0.05526 -0.06112,0.06075 -0.06096,-0.1085 0.08634,-0.27733 0.1753,-0.33655 0.12006,-0.07992 0.20492,-0.08999 0.39748,-0.08999 0.16096,-0.24037 0.45369,-0.30746 0.69911,-0.18726 0.09129,0.04471 0.101,0.0827 0.16616,0.12633 0.17761,-0.04138 0.30294,-0.05265 0.47932,0.04472 0.12341,0.06812 0.21533,0.19323 0.21533,0.38182 -0.04568,-0.03347 -0.08103,-0.20842 -0.32428,-0.28506 -0.11158,-0.03516 -0.23044,-0.0401 -0.34186,-0.00329 -0.09826,0.03246 -0.14485,0.05301 -0.21633,0.1249l-0.03504 0.03808c-0.02655,0.02899 -0.02167,0.01872 -0.0414,0.0561 -0.00701,0.01327 -0.00993,0.02187 -0.01594,0.03281l-0.02447 0.03646c0,-0.12811 0.00526,-0.14063 0.05243,-0.22787 0.02243,-0.0415 0.03422,-0.04864 0.06616,-0.08008 0.02663,-0.02621 0.05976,-0.04713 0.0764,-0.06984 -0.27004,-0.14289 -0.5808,-0.10877 -0.7434,0.13405zm0.21936 -0.58497c-0.03382,0 -0.06117,-0.01531 -0.0887,-0.02098 -0.04111,-0.00847 -0.05373,-0.00821 -0.09182,-0.01786 -0.19931,-0.05051 -0.39774,-0.04745 -0.54794,0.10252 -0.09826,0.09811 -0.14899,0.15773 -0.14899,0.35067 -0.10249,-0.00852 -0.12345,-0.03072 -0.23374,-0.01452 -0.10117,0.01485 -0.13735,0.02544 -0.21339,0.06706 -0.39595,0.21673 -0.25973,0.81161 0.33114,0.79656 0.10071,-0.00256 0.19822,0.17258 0.22758,0.24581 0.07189,0.17929 0.13619,0.53129 0.13159,0.73368 -0.00188,0.08263 -0.04306,0.10614 0.24453,0.12111 0.14127,0.00736 0.16061,0.03595 0.14156,-0.07923 -0.00944,-0.05711 -0.01826,-0.31047 -0.0407,-0.4482 -0.0193,-0.11848 -0.05709,-0.31539 -0.1011,-0.39857 0.23314,0.03425 0.22516,-0.01602 0.36561,-0.04875 0.12659,0.23925 0.26119,0.30468 0.53622,0.30468 0.06423,0 0.15148,-0.02787 0.19499,-0.04875 -0.00133,0.05971 -0.03549,0.21218 -0.03705,0.34075 -0.00166,0.13792 -0.0117,0.2394 -0.0117,0.37828 0.09946,0 0.32597,-0.03022 0.38998,-0.06094 0,-0.31597 0.01444,-0.67442 0.12187,-0.87745 0.50227,0.11701 0.84951,-0.31997 0.57145,-0.66895 -0.03872,-0.04859 -0.12997,-0.12908 -0.20584,-0.13539 0.0277,-0.11889 0.05967,-0.24095 -0.04129,-0.37306 -0.10503,-0.13743 -0.22637,-0.19214 -0.39817,-0.21118 -0.06862,-0.0076 -0.03818,-0.00236 -0.08484,-0.03703 -0.04854,-0.03607 -0.11214,-0.0534 -0.15488,-0.08885 -0.15275,-0.12668 -0.20792,-0.15515 -0.42983,-0.15515 -0.25972,0 -0.41649,0.24374 -0.42654,0.24374z"/>
    <path class="fil1" d="M3.67007 3.33104c0.14958,0.03484 0.3414,0.06167 0.41435,0.17061 -0.03229,0.13859 -0.38809,0.18746 -0.51387,0.20516 -0.41686,0.05867 -0.64759,0.05077 -1.05824,0.05077 -0.26064,0 -1.15775,-0.06085 -1.15775,-0.25593 0,-0.06289 0.19523,-0.12388 0.25349,-0.13649 0.0414,-0.00896 0.08774,0.00029 0.08774,-0.04631 0,-0.08939 -0.11703,-0.18281 -0.20718,-0.18281 -0.07203,0 -0.81775,0.24466 -0.39393,0.58893 0.12422,0.1009 0.32528,0.17008 0.48174,0.21291 0.29217,0.07998 0.26561,0.00803 0.26561,0.17312 0,0.37542 -0.20718,0.48142 -0.20718,0.54841 0,0.07215 0.11648,0.04875 0.24374,0.04875 0.30499,0 0.35342,-0.42293 0.35342,-0.6581 0.06034,0 0.06308,0.00768 0.11033,0.01155 0.03914,0.0032 0.08204,-0.00148 0.12128,0.00059 0.32024,0.01685 0.35716,0.00005 0.64585,0.00005 0,0.2353 0.05246,0.64591 0.35342,0.64591 0.17348,0 0.24374,0.02428 0.24374,-0.06094 0,-0.08103 -0.20718,-0.06913 -0.20718,-0.63372 0.22714,-0.0189 0.96277,-0.20313 0.96277,-0.48747 0,-0.13071 -0.09654,-0.20553 -0.21213,-0.27535 -0.11177,-0.06752 -0.26168,-0.12682 -0.39722,-0.12682 -0.09553,0 -0.17507,0.11419 -0.1828,0.20718z"/>
   </g>
  </g>
 </g>
</svg>
