<?xml version="1.0" encoding="UTF-8"?>
<!DOCTYPE svg PUBLIC "-//W3C//DTD SVG 1.1//EN" "http://www.w3.org/Graphics/SVG/1.1/DTD/svg11.dtd">
<!-- Creator: CorelDRAW 2017 -->
<svg xmlns="http://www.w3.org/2000/svg" xml:space="preserve" width="100%" height="100%" version="1.1" style="shape-rendering:geometricPrecision; text-rendering:geometricPrecision; image-rendering:optimizeQuality; fill-rule:evenodd; clip-rule:evenodd"
viewBox="0 0 11.49898 6.92881"
 xmlns:xlink="http://www.w3.org/1999/xlink">
 <defs>
  <style type="text/css">
   <![CDATA[
    .str0 {stroke:#D2AE6D;stroke-width:0.4331;stroke-linecap:round;stroke-linejoin:round;stroke-miterlimit:22.9256}
    .fil0 {fill:none}
   ]]>
  </style>
 </defs>
 <g id="Camada_x0020_1">
  <metadata id="CorelCorpID_0Corel-Layer"/>
  <g id="_1752663976400">
   <g>
    <path class="fil0 str0" d="M0.2166 5.48137l0.38998 0.12188c0.1563,0.04884 0.29949,0.18664 0.35343,0.34124l0.1828 0.52403c0.04201,0.12043 0.1771,0.23157 0.30468,0.23157l0.45092 0c0.20987,0 0.41296,-0.22278 0.46311,-0.42656l0.195 -0.79216"/>
   </g>
   <g>
    <path class="fil0 str0" d="M9.10097 2.94647c0.14369,-0.28599 0.47816,-0.61278 0.85309,-0.60936l1.32838 0.0122 -0.01219 0.90184c-0.00595,0.44269 -0.72929,0.9112 -1.13337,0.95059l-0.49969 0.04875 -1.46243 1.47462 -0.23157 0.02439 -0.02436 0.58497c-0.00751,0.18081 -0.20902,0.37779 -0.39,0.37779l-0.57278 0c-0.15355,0 -0.33359,-0.13011 -0.36562,-0.2803l-0.23155 -1.08464"/>
   </g>
   <g>
    <line class="fil0 str0" x1="2.55652" y1="5.96885" x2="6.41982" y2= "5.96885" />
   </g>
   <g>
    <path class="fil0 str0" d="M8.57691 3.36081c-0.28495,-0.12792 -0.53588,-0.3306 -0.65808,-0.81651l-0.17063 -0.56061c-0.48706,-1.19475 -1.55583,-1.76101 -3.27831,-1.76714 -1.54667,-0.0055 -2.51251,0.64906 -3.08334,1.86463 -0.0975,0.35343 -0.16192,0.7177 -0.29249,1.06028 -0.19687,0.51656 -0.49822,0.76426 -0.79215,0.87746 0.0207,0.4668 0.24703,0.70685 0.7556,0.70685l5.78885 0c0.70685,0 1.49606,-0.53159 1.73055,-1.36496z"/>
   </g>
   <g>
    <polyline class="fil0 str0" points="3.36086,3.83612 2.69057,3.08052 3.58024,1.70339 5.57892,1.71556 6.49293,3.08052 5.44485,3.86048 "/>
   </g>
   <g>
    <line class="fil0 str0" x1="6.49293" y1="3.08052" x2="7.28509" y2= "3.08052" />
   </g>
   <g>
    <line class="fil0 str0" x1="5.57892" y1="1.71556" x2="6.22483" y2= "1.20372" />
   </g>
   <g>
    <line class="fil0 str0" x1="3.58024" y1="1.70339" x2="2.89775" y2= "1.15498" />
   </g>
   <g>
    <line class="fil0 str0" x1="2.69057" y1="3.08052" x2="1.88622" y2= "3.08052" />
   </g>
  </g>
 </g>
</svg>
