<?xml version="1.0" encoding="UTF-8"?>
<!DOCTYPE svg PUBLIC "-//W3C//DTD SVG 1.1//EN" "http://www.w3.org/Graphics/SVG/1.1/DTD/svg11.dtd">
<!-- Creator: CorelDRAW 2017 -->
<svg xmlns="http://www.w3.org/2000/svg" xml:space="preserve" width="100%" height="100%" version="1.1" style="shape-rendering:geometricPrecision; text-rendering:geometricPrecision; image-rendering:optimizeQuality; fill-rule:evenodd; clip-rule:evenodd"
viewBox="0 0 5.23676 5.89474"
 xmlns:xlink="http://www.w3.org/1999/xlink">
 <defs>
  <style type="text/css">
   <![CDATA[
    .str0 {stroke:#FEFEFE;stroke-width:0.17435;stroke-miterlimit:22.9256}
    .fil0 {fill:none}
    .fil1 {fill:#201E1E}
   ]]>
  </style>
 </defs>
 <g id="Camada_x0020_1">
  <metadata id="CorelCorpID_0Corel-Layer"/>
  <g id="_1752448106112">
   <path class="fil0 str0" d="M2.82565 0.14425l2.11667 1.22206c0.13182,0.0761 0.20727,0.20679 0.20727,0.359l0 2.44412c0,0.15221 -0.07545,0.2829 -0.20727,0.35901l-2.11667 1.22205c-0.13182,0.07611 -0.28272,0.07611 -0.41454,0l-2.11667 -1.22205c-0.13182,-0.07611 -0.20727,-0.2068 -0.20727,-0.35901l0 -2.44412c0,-0.15221 0.07545,-0.2829 0.20727,-0.359l2.11667 -1.22206c0.13182,-0.07611 0.28272,-0.07611 0.41454,0z"/>
   <path class="fil1" d="M3.13029 3.58746l0 -1.06079c0,-0.25456 -0.20906,-0.4636 -0.46362,-0.4636 -0.25456,0 -0.46361,0.20904 -0.46361,0.4636l0 1.05927 -0.08627 0.06572c-0.16393,0.12486 -0.27313,0.30805 -0.27313,0.51718 0,0.42839 0.42626,0.69564 0.82178,0.69564 0.39551,0 0.82177,-0.26725 0.82177,-0.69564 0,-0.20826 -0.1083,-0.3908 -0.27118,-0.51566l-0.08574 -0.06572zm0.21893 -0.10804c0.21871,0.16766 0.35693,0.41434 0.35693,0.68942 0,0.50511 -0.46595,0.91457 -1.04071,0.91457 -0.57477,0 -1.04071,-0.40946 -1.04071,-0.91457 0,-0.27612 0.13926,-0.52366 0.3594,-0.69135l0 -0.95082c0,-0.3754 0.30714,-0.68254 0.68254,-0.68254l0.00001 0c0.3754,0 0.68254,0.30714 0.68254,0.68254l0 0.95275zm-0.48657 0.24526c0.16345,0.0745 0.27707,0.2393 0.27707,0.43065 0,0.26126 -0.21179,0.47305 -0.47305,0.47305 -0.26126,0 -0.47305,-0.21179 -0.47305,-0.47305 0,-0.19135 0.11362,-0.35615 0.27707,-0.43065l0 -1.21152c0,-0.10779 0.08819,-0.19598 0.19598,-0.19598l0 0c0.1078,0 0.19598,0.08819 0.19598,0.19598l0 1.21152zm-0.3594 0.14681c0.08211,0 0.14867,0.06657 0.14867,0.14868 0,0.08211 -0.06656,0.14867 -0.14867,0.14867 -0.08211,0 -0.14868,-0.06656 -0.14868,-0.14867 0,-0.08211 0.06657,-0.14868 0.14868,-0.14868zm-1.58743 -1.11289l0.50097 0.25049c0.07328,0.03663 0.10636,-0.01179 0.05298,-0.05781l-0.2409 -0.20766c-0.05443,-0.04693 -0.07476,-0.09103 0.00969,-0.13916l0.44797 -0.2553c0.04945,-0.02818 0.06794,-0.1104 0.04818,-0.16377l-0.24086 -0.6503c-0.02244,-0.06062 0.01809,-0.10126 0.06745,-0.08671l0.58767 0.17342c0.11976,0.03533 0.15232,0.02787 0.21195,-0.04335l0.34682 -0.41427c0.04741,-0.05662 0.06119,-0.05009 0.10598,0.01928l0.24566 0.38053c0.03935,0.06095 0.12585,0.10301 0.19749,0.09152l0.5106 -0.08188c0.1515,-0.02429 0.15876,0.00594 0.10598,0.14451l-0.15414 0.40462c-0.04405,0.11565 -0.06191,0.13924 0.04816,0.1975l0.40945 0.21676c0.08497,0.04498 0.09973,0.10919 0.03372,0.18305l-0.20231 0.2264c-0.03514,0.03933 0.00521,0.07599 0.05298,0.04336l0.48652 -0.33238c0.06492,-0.04435 0.07609,-0.13765 0.00963,-0.16859l-0.55877 -0.26012c-0.1007,-0.04689 -0.07827,-0.12606 -0.04817,-0.21195l0.1975 -0.56359c0.04295,-0.12258 0.00546,-0.17592 -0.14933,-0.14932l-0.61658 0.10597c-0.06064,0.01041 -0.14603,0.00428 -0.17822,-0.04817l-0.33719 -0.54913c-0.03804,-0.06196 -0.17253,-0.0336 -0.21676,0.02408l-0.38055 0.49615c-0.03892,0.05076 -0.12159,0.07561 -0.18305,0.05781l-0.69846 -0.20232c-0.13939,-0.04038 -0.19346,0.03903 -0.1445,0.18787l0.23603 0.71773c0.01823,0.05543 0.02734,0.14583 -0.02409,0.17341l-0.52986 0.28419c-0.0838,0.04495 -0.08703,0.16844 -0.00964,0.20713z"/>
  </g>
 </g>
</svg>
