<?xml version="1.0" encoding="UTF-8"?>
<!DOCTYPE svg PUBLIC "-//W3C//DTD SVG 1.1//EN" "http://www.w3.org/Graphics/SVG/1.1/DTD/svg11.dtd">
<!-- Creator: CorelDRAW 2017 -->
<svg xmlns="http://www.w3.org/2000/svg" xml:space="preserve" width="100%" height="100%" version="1.1" style="shape-rendering:geometricPrecision; text-rendering:geometricPrecision; image-rendering:optimizeQuality; fill-rule:evenodd; clip-rule:evenodd"
viewBox="0 0 10.40831 9.29128"
 xmlns:xlink="http://www.w3.org/1999/xlink">
 <defs>
  <style type="text/css">
   <![CDATA[
    .str0 {stroke:#201E1E;stroke-width:0.15;stroke-miterlimit:22.9256}
    .str1 {stroke:#FEFEFE;stroke-width:0.08871;stroke-linecap:round;stroke-linejoin:round;stroke-miterlimit:22.9256}
    .str2 {stroke:#FEFEFE;stroke-width:0.08871;stroke-linecap:round;stroke-linejoin:round;stroke-miterlimit:22.9256}
    .str3 {stroke:#FEFEFE;stroke-width:0.08871;stroke-linecap:round;stroke-linejoin:round;stroke-miterlimit:22.9256}
    .str5 {stroke:#FEFEFE;stroke-width:0.08871;stroke-linecap:round;stroke-linejoin:round;stroke-miterlimit:22.9256}
    .str4 {stroke:#FEFEFE;stroke-width:0.08871;stroke-linecap:round;stroke-linejoin:round;stroke-miterlimit:22.9256}
    .str7 {stroke:#FEFEFE;stroke-width:0.08872;stroke-linecap:round;stroke-linejoin:round;stroke-miterlimit:22.9256}
    .str6 {stroke:#FEFEFE;stroke-width:0.08872;stroke-linecap:round;stroke-linejoin:round;stroke-miterlimit:22.9256}
    .fil1 {fill:none}
    .fil0 {fill:#F54029}
   ]]>
  </style>
 </defs>
 <g id="Camada_x0020_1">
  <metadata id="CorelCorpID_0Corel-Layer"/>
  <path class="fil0" d="M3.13341 0.475c-0.21838,0 -0.39658,0.10288 -0.50577,0.29201l-2.07075 3.58663c-0.10919,0.18912 -0.10918,0.39488 0.00001,0.58401l2.07074 3.58662c0.10919,0.18913 0.28738,0.29202 0.50576,0.29201l4.14149 0c0.21838,0 0.39658,-0.10288 0.50577,-0.29201l2.07075 -3.58663c0.10919,-0.18912 0.10918,-0.39488 -0.00001,-0.58401l-2.07074 -3.58662c-0.10919,-0.18913 -0.28738,-0.29202 -0.50576,-0.29201l-4.14149 0z"/>
  <path class="fil1 str0" d="M3.13341 0.075l4.14149 0c0.36131,0 0.67152,0.1791 0.85217,0.49201l2.07074 3.58662c0.18066,0.3129 0.18066,0.6711 0,0.98401l-2.07074 3.58664c-0.18066,0.3129 -0.49087,0.492 -0.85218,0.492l-4.14149 0c-0.36131,0 -0.67152,-0.1791 -0.85217,-0.49201l-2.07074 -3.58662c-0.18066,-0.3129 -0.18066,-0.6711 0,-0.98401l2.07074 -3.58664c0.18066,-0.3129 0.49087,-0.492 0.85218,-0.492z"/>
  <g id="_2427768511136">
   <path class="fil1 str1" d="M5.20734 2.91225c0.9838,0 1.78133,0.70291 1.78133,1.57l-1.69172 0 -1.21613 -1.21613c0.30696,-0.22115 0.69914,-0.35387 1.12652,-0.35387zm-0.42274 1.57l-1.35857 0c0,-0.36805 0.14374,-0.7065 0.38439,-0.97418l0.97418 0.97418z"/>
   <path class="fil1 str2" d="M5.20734 6.3753c0.4603,0 0.87981,-0.10386 1.19594,-0.27437l-0.78541 -0.7854 -2.19184 0c0,0.58529 0.79754,1.05977 1.78131,1.05977zm1.49723 -0.48543c0.17973,-0.16548 0.2841,-0.36266 0.2841,-0.57434l-0.85844 0 0.57434 0.57434z"/>
   <path class="fil1 str3" d="M3.42604 4.69962l1.57593 0 0.6159 0.61591 -2.19183 0c-0.16938,0 -0.30796,-0.13857 -0.30796,-0.30795l0 0c0,-0.16938 0.13858,-0.30796 0.30796,-0.30796zm2.86854 0l0.69682 0c0.16935,0 0.30793,0.13858 0.30793,0.30796l0 0c0,0.16938 -0.13858,0.30795 -0.30793,0.30795l-0.86117 0 -0.20853 -0.20853 0.37288 -0.40738z"/>
   <path class="fil1 str4" d="M6.98867 4.48225l-0.49513 0 -0.19896 0.21737 0.69409 0 0 -0.21737zm-2.20407 0l-1.35857 0 0 0.21737 1.57594 0 -0.21737 -0.21737z"/>
   <polygon class="fil1 str5" points="5.29695,4.48225 6.49354,4.48225 5.9217,5.107 "/>
   <line class="fil1 str6" x1="6.39692" y1="3.74555" x2="6.46939" y2= "3.87838" />
   <line class="fil1 str6" x1="5.85346" y1="3.91461" x2="5.81723" y2= "4.10785" />
   <line class="fil1 str6" x1="5.64814" y1="3.28663" x2="5.72061" y2= "3.41948" />
   <line class="fil1 str6" x1="4.98393" y1="3.3591" x2="4.9477" y2= "3.4557" />
   <line class="fil1 str6" x1="4.0057" y1="3.98708" x2="3.89701" y2= "4.09578" />
   <line class="fil1 str6" x1="4.31969" y1="3.43154" x2="4.41631" y2= "3.34702" />
   <path class="fil1 str7" d="M5.20415 1.48436c1.74593,0 3.16128,1.41535 3.16128,3.16128 0,1.74593 -1.41535,3.16128 -3.16128,3.16128 -1.74593,0 -3.16128,-1.41535 -3.16128,-3.16128 0,-1.74593 1.41535,-3.16128 3.16128,-3.16128zm-1.81262 1.09247l3.88143 3.88143c0.42447,-0.48406 0.68186,-1.11823 0.68186,-1.81262 0,-1.51916 -1.23151,-2.75067 -2.75067,-2.75067 -0.69439,0 -1.32856,0.25739 -1.81262,0.68186zm3.62526 4.13762l-3.88143 -3.88145c-0.42449,0.48402 -0.68188,1.11825 -0.68188,1.81264 0,1.51916 1.23151,2.75067 2.75067,2.75067 0.69439,0 1.3286,-0.25737 1.81264,-0.68186z"/>
  </g>
 </g>
</svg>
