<?xml version="1.0" encoding="UTF-8"?>
<!DOCTYPE svg PUBLIC "-//W3C//DTD SVG 1.1//EN" "http://www.w3.org/Graphics/SVG/1.1/DTD/svg11.dtd">
<!-- Creator: CorelDRAW 2017 -->
<svg xmlns="http://www.w3.org/2000/svg" xml:space="preserve" width="100%" height="100%" version="1.1" style="shape-rendering:geometricPrecision; text-rendering:geometricPrecision; image-rendering:optimizeQuality; fill-rule:evenodd; clip-rule:evenodd"
viewBox="0 0 10.40831 9.29128"
 xmlns:xlink="http://www.w3.org/1999/xlink">
 <defs>
  <style type="text/css">
   <![CDATA[
    .str0 {stroke:#201E1E;stroke-width:0.15;stroke-miterlimit:22.9256}
    .str1 {stroke:#FEFEFE;stroke-width:0.09431;stroke-linecap:round;stroke-linejoin:round;stroke-miterlimit:22.9256}
    .fil1 {fill:none}
    .fil0 {fill:#F54029}
   ]]>
  </style>
 </defs>
 <g id="Camada_x0020_1">
  <metadata id="CorelCorpID_0Corel-Layer"/>
  <path class="fil0" d="M3.13341 0.475c-0.21838,0 -0.39658,0.10288 -0.50577,0.29201l-2.07075 3.58663c-0.10919,0.18912 -0.10918,0.39488 0.00001,0.58401l2.07074 3.58662c0.10919,0.18913 0.28738,0.29202 0.50576,0.29201l4.14149 0c0.21838,0 0.39658,-0.10288 0.50577,-0.29201l2.07075 -3.58663c0.10919,-0.18912 0.10918,-0.39488 -0.00001,-0.58401l-2.07074 -3.58662c-0.10919,-0.18913 -0.28738,-0.29202 -0.50576,-0.29201l-4.14149 0z"/>
  <path class="fil1 str0" d="M3.13341 0.075l4.14149 0c0.36131,0 0.67152,0.1791 0.85217,0.49201l2.07074 3.58662c0.18066,0.3129 0.18066,0.6711 0,0.98401l-2.07074 3.58664c-0.18066,0.3129 -0.49087,0.492 -0.85218,0.492l-4.14149 0c-0.36131,0 -0.67152,-0.1791 -0.85217,-0.49201l-2.07074 -3.58662c-0.18066,-0.3129 -0.18066,-0.6711 0,-0.98401l2.07074 -3.58664c0.18066,-0.3129 0.49087,-0.492 0.85218,-0.492z"/>
  <g id="_2427629365488">
   <path class="fil1 str1" d="M2.94066 6.4918c-0.03242,-0.13485 0.03244,-0.20265 0.19518,-0.30496 0.18775,-0.06768 0.35194,-0.17855 0.51234,-0.30497 0.26334,-0.20757 0.40544,-0.2572 0.43915,-0.68312 0.04532,-0.5722 0.0675,-0.66444 -0.13254,-1.20375 -0.09163,-0.24705 -0.12132,-0.29828 -0.08212,-0.53323 0.04167,-0.24982 0.14107,-0.35413 0.30005,0.06577 0.04297,0.09309 0.10716,0.19146 0.28057,0.31716 0.24933,0.12352 0.54736,0.14954 1.02468,-0.18297 0.216,-0.20687 0.35325,-0.49253 0.43916,-0.82951 0.04734,-0.26163 0.1682,-0.33206 0.37815,-0.17079 0.22772,0.18298 0.4351,0.40661 0.59773,0.71973"/>
   <line class="fil1 str1" x1="4.11172" y1="4.60102" x2="4.56308" y2= "4.56443" />
   <line class="fil1 str1" x1="4.09952" y1="5.06457" x2="4.51429" y2= "5.04016" />
   <line class="fil1 str1" x1="4.00193" y1="5.46711" x2="4.38009" y2= "5.40612" />
   <path class="fil1 str1" d="M5.59995 5.11336c0.48997,-0.3981 0.88144,-0.9027 1.50043,-1.51262 0.11087,-0.10926 0.27912,0.08296 0.35377,0.21956 0.0948,0.17344 0.01566,0.33335 -0.0732,0.42695l-0.91489 0.9637c-0.1312,0.1382 -0.34816,0.17558 -0.47575,0.31716 -0.17601,0.1953 -0.23288,0.48106 -0.41475,0.67093 -0.15617,0.16303 -0.35393,0.3109 -0.57334,0.50014 -0.18385,0.15856 -0.35421,0.33346 -0.74411,0.32936l-1.15887 -0.0122c-0.19702,-0.00207 -0.32897,-0.11572 -0.32937,-0.25618 -0.00021,-0.07317 0.01826,-0.04905 0.0122,-0.12198 -0.00603,-0.07254 0.09733,-0.10773 0.28058,-0.10979l1.08567 -0.01219c0.26658,-0.00299 0.4958,-0.07403 0.7929,-0.39036 0.34786,-0.37037 0.31886,-0.73631 0.65873,-1.01248z"/>
   <line class="fil1 str1" x1="5.64875" y1="2.31988" x2="5.12422" y2= "1.70995" />
   <line class="fil1 str1" x1="4.13613" y1="2.82002" x2="3.11143" y2= "1.78314" />
   <line class="fil1 str1" x1="6.95401" y1="5.46711" x2="7.94209" y2= "5.46711" />
   <line class="fil1 str1" x1="6.22208" y1="6.18684" x2="7.23458" y2= "6.18684" />
   <line class="fil1 str1" x1="7.49074" y1="6.19904" x2="7.78351" y2= "6.19904" />
   <line class="fil1 str1" x1="6.66124" y1="6.83336" x2="7.9299" y2= "6.83336" />
  </g>
 </g>
</svg>
