<?xml version="1.0" encoding="UTF-8"?>
<!DOCTYPE svg PUBLIC "-//W3C//DTD SVG 1.1//EN" "http://www.w3.org/Graphics/SVG/1.1/DTD/svg11.dtd">
<!-- Creator: CorelDRAW 2017 -->
<svg xmlns="http://www.w3.org/2000/svg" xml:space="preserve" width="100%" height="100%" version="1.1" style="shape-rendering:geometricPrecision; text-rendering:geometricPrecision; image-rendering:optimizeQuality; fill-rule:evenodd; clip-rule:evenodd"
viewBox="0 0 10.40831 9.29128"
 xmlns:xlink="http://www.w3.org/1999/xlink">
 <defs>
  <style type="text/css">
   <![CDATA[
    .str0 {stroke:#201E1E;stroke-width:0.15;stroke-miterlimit:22.9256}
    .str14 {stroke:#FEFEFE;stroke-width:0.09347;stroke-linecap:round;stroke-linejoin:round;stroke-miterlimit:22.9256}
    .str10 {stroke:#FEFEFE;stroke-width:0.09347;stroke-linecap:round;stroke-linejoin:round;stroke-miterlimit:22.9256}
    .str18 {stroke:#FEFEFE;stroke-width:0.09347;stroke-linecap:round;stroke-linejoin:round;stroke-miterlimit:22.9256}
    .str11 {stroke:#FEFEFE;stroke-width:0.09347;stroke-linecap:round;stroke-linejoin:round;stroke-miterlimit:22.9256}
    .str12 {stroke:#FEFEFE;stroke-width:0.09347;stroke-linecap:round;stroke-linejoin:round;stroke-miterlimit:22.9256}
    .str9 {stroke:#FEFEFE;stroke-width:0.09347;stroke-linecap:round;stroke-linejoin:round;stroke-miterlimit:22.9256}
    .str15 {stroke:#FEFEFE;stroke-width:0.09347;stroke-linecap:round;stroke-linejoin:round;stroke-miterlimit:22.9256}
    .str7 {stroke:#FEFEFE;stroke-width:0.09347;stroke-linecap:round;stroke-linejoin:round;stroke-miterlimit:22.9256}
    .str8 {stroke:#FEFEFE;stroke-width:0.09347;stroke-linecap:round;stroke-linejoin:round;stroke-miterlimit:22.9256}
    .str6 {stroke:#FEFEFE;stroke-width:0.09347;stroke-linecap:round;stroke-linejoin:round;stroke-miterlimit:22.9256}
    .str5 {stroke:#FEFEFE;stroke-width:0.09347;stroke-linecap:round;stroke-linejoin:round;stroke-miterlimit:22.9256}
    .str4 {stroke:#FEFEFE;stroke-width:0.09347;stroke-linecap:round;stroke-linejoin:round;stroke-miterlimit:22.9256}
    .str19 {stroke:#FEFEFE;stroke-width:0.09347;stroke-linecap:round;stroke-linejoin:round;stroke-miterlimit:22.9256}
    .str16 {stroke:#FEFEFE;stroke-width:0.09347;stroke-linecap:round;stroke-linejoin:round;stroke-miterlimit:22.9256}
    .str13 {stroke:#FEFEFE;stroke-width:0.09347;stroke-linecap:round;stroke-linejoin:round;stroke-miterlimit:22.9256}
    .str20 {stroke:#FEFEFE;stroke-width:0.09347;stroke-linecap:round;stroke-linejoin:round;stroke-miterlimit:22.9256}
    .str17 {stroke:#FEFEFE;stroke-width:0.09347;stroke-linecap:round;stroke-linejoin:round;stroke-miterlimit:22.9256}
    .str3 {stroke:#FEFEFE;stroke-width:0.09347;stroke-linecap:round;stroke-linejoin:round;stroke-miterlimit:22.9256}
    .str1 {stroke:#FEFEFE;stroke-width:0.09347;stroke-linecap:round;stroke-linejoin:round;stroke-miterlimit:22.9256}
    .str2 {stroke:#FEFEFE;stroke-width:0.09347;stroke-linecap:round;stroke-linejoin:round;stroke-miterlimit:22.9256}
    .fil1 {fill:none}
    .fil0 {fill:#F54029}
    .fil2 {fill:#FEFEFE;fill-rule:nonzero}
   ]]>
  </style>
 </defs>
 <g id="Camada_x0020_1">
  <metadata id="CorelCorpID_0Corel-Layer"/>
  <path class="fil0" d="M3.13341 0.475c-0.21838,0 -0.39658,0.10288 -0.50577,0.29201l-2.07075 3.58663c-0.10919,0.18912 -0.10918,0.39488 0.00001,0.58401l2.07074 3.58662c0.10919,0.18913 0.28738,0.29202 0.50576,0.29201l4.14149 0c0.21838,0 0.39658,-0.10288 0.50577,-0.29201l2.07075 -3.58663c0.10919,-0.18912 0.10918,-0.39488 -0.00001,-0.58401l-2.07074 -3.58662c-0.10919,-0.18913 -0.28738,-0.29202 -0.50576,-0.29201l-4.14149 0z"/>
  <path class="fil1 str0" d="M3.13341 0.075l4.14149 0c0.36131,0 0.67152,0.1791 0.85217,0.49201l2.07074 3.58662c0.18066,0.3129 0.18066,0.6711 0,0.98401l-2.07074 3.58664c-0.18066,0.3129 -0.49087,0.492 -0.85218,0.492l-4.14149 0c-0.36131,0 -0.67152,-0.1791 -0.85217,-0.49201l-2.07074 -3.58662c-0.18066,-0.3129 -0.18066,-0.6711 0,-0.98401l2.07074 -3.58664c0.18066,-0.3129 0.49087,-0.492 0.85218,-0.492z"/>
  <g id="_2427768561664">
   <line class="fil1 str1" x1="6.7244" y1="2.97745" x2="6.9187" y2= "2.77524" />
   <line class="fil1 str2" x1="6.95951" y1="3.20602" x2="7.15293" y2= "3.01475" />
   <path class="fil1 str3" d="M7.13158 2.52517l0.27449 0.29643c0.05833,0.06299 0.05452,0.16224 -0.00847,0.22057l-0.04268 0.03951c-0.03952,0.0366 -0.10179,0.03421 -0.13839,-0.00531l-0.35351 -0.38177c-0.0366,-0.03953 -0.03421,-0.10179 0.00532,-0.13839l0.04267 -0.03952c0.06299,-0.05832 0.16224,-0.05451 0.22057,0.00848z"/>
   <g>
    <g>
     <g>
      <path class="fil2" d="M4.69488 2.33626c0,0.023 -0.02093,0.04165 -0.04673,0.04165 -0.0258,0 -0.04673,-0.01865 -0.04673,-0.04165l0.09346 0zm0 -0.18566l0 0.18566 -0.09346 0 0 -0.18566 0.09346 0zm-0.09346 0c0,-0.023 0.02093,-0.04165 0.04673,-0.04165 0.0258,0 0.04673,0.01865 0.04673,0.04165l-0.09346 0z"/>
     </g>
     <line class="fil1 str4" x1="5.42661" y1="2.35554" x2="5.42661" y2= "2.14723" />
    </g>
    <path class="fil1 str5" d="M4.67555 1.58805l0.72364 0c0.15378,0 0.27959,0.12581 0.27959,0.27959l0 0.10416c0,0.09649 -0.07893,0.17543 -0.17542,0.17543l-0.93197 0c-0.09649,0 -0.17543,-0.07894 -0.17543,-0.17543l0 -0.10416c0,-0.15378 0.12581,-0.27959 0.27959,-0.27959z"/>
    <line class="fil1 str6" x1="4.73038" y1="1.77444" x2="4.73038" y2= "2.00469" />
    <line class="fil1 str7" x1="5.34438" y1="1.77444" x2="5.34438" y2= "2.00469" />
    <line class="fil1 str8" x1="5.03737" y1="1.77444" x2="5.03737" y2= "2.00469" />
   </g>
   <path class="fil1 str9" d="M4.48133 2.40568c0.18011,-0.0395 0.36395,-0.05942 0.54834,-0.05942 1.41365,0 2.55964,1.14599 2.55964,2.55964 0,1.41365 -1.14599,2.55964 -2.55964,2.55964 -0.19532,0 -0.38999,-0.02235 -0.58022,-0.06663"/>
   <line class="fil1 str10" x1="4.22598" y1="3.1567" x2="3.64516" y2= "3.1567" />
   <line class="fil1 str10" x1="4.22598" y1="3.83207" x2="3.15889" y2= "3.83207" />
   <line class="fil1 str11" x1="4.22598" y1="4.56146" x2="2.72666" y2= "4.56146" />
   <line class="fil1 str12" x1="4.22598" y1="5.20981" x2="2.29443" y2= "5.20981" />
   <line class="fil1 str12" x1="4.22598" y1="5.9122" x2="2.82121" y2= "5.9122" />
   <line class="fil1 str11" x1="4.22598" y1="6.57406" x2="3.42905" y2= "6.57406" />
   <path class="fil1 str13" d="M4.89091 4.81745l1.32003 -0.90421 -0.93725 1.29678c-0.1084,0.1057 -0.28198,0.10351 -0.38768,-0.00489 -0.1057,-0.10841 -0.10351,-0.28198 0.0049,-0.38768z"/>
   <line class="fil1 str14" x1="5.03642" y1="2.3556" x2="5.03642" y2= "2.7338" />
   <line class="fil1 str15" x1="7.57736" y1="4.90589" x2="7.19916" y2= "4.90589" />
   <line class="fil1 str16" x1="7.2393" y1="3.62768" x2="6.91243" y2= "3.81793" />
   <line class="fil1 str17" x1="6.29532" y1="2.68679" x2="6.12993" y2= "3.02691" />
   <line class="fil1 str18" x1="5.03642" y1="7.45682" x2="5.03642" y2= "7.07862" />
   <line class="fil1 str19" x1="7.24865" y1="6.18474" x2="6.92178" y2= "5.9945" />
   <line class="fil1 str20" x1="6.30077" y1="7.12447" x2="6.13538" y2= "6.78435" />
  </g>
 </g>
</svg>
