<?xml version="1.0" encoding="UTF-8"?>
<!DOCTYPE svg PUBLIC "-//W3C//DTD SVG 1.1//EN" "http://www.w3.org/Graphics/SVG/1.1/DTD/svg11.dtd">
<!-- Creator: CorelDRAW 2017 -->
<svg xmlns="http://www.w3.org/2000/svg" xml:space="preserve" width="100%" height="100%" version="1.1" style="shape-rendering:geometricPrecision; text-rendering:geometricPrecision; image-rendering:optimizeQuality; fill-rule:evenodd; clip-rule:evenodd"
viewBox="0 0 10.40831 9.29128"
 xmlns:xlink="http://www.w3.org/1999/xlink">
 <defs>
  <style type="text/css">
   <![CDATA[
    .str1 {stroke:#FEFEFE;stroke-width:0.1;stroke-miterlimit:22.9256}
    .str0 {stroke:#201E1E;stroke-width:0.15;stroke-miterlimit:22.9256}
    .fil1 {fill:none}
    .fil0 {fill:#F54029}
   ]]>
  </style>
 </defs>
 <g id="Camada_x0020_1">
  <metadata id="CorelCorpID_0Corel-Layer"/>
  <path class="fil0" d="M3.13341 0.475c-0.21838,0 -0.39658,0.10288 -0.50577,0.29201l-2.07075 3.58663c-0.10919,0.18912 -0.10918,0.39488 0.00001,0.58401l2.07074 3.58662c0.10919,0.18913 0.28738,0.29202 0.50576,0.29201l4.14149 0c0.21838,0 0.39658,-0.10288 0.50577,-0.29201l2.07075 -3.58663c0.10919,-0.18912 0.10918,-0.39488 -0.00001,-0.58401l-2.07074 -3.58662c-0.10919,-0.18913 -0.28738,-0.29202 -0.50576,-0.29201l-4.14149 0z"/>
  <path class="fil1 str0" d="M3.13341 0.075l4.14149 0c0.36131,0 0.67152,0.1791 0.85217,0.49201l2.07074 3.58662c0.18066,0.3129 0.18066,0.6711 0,0.98401l-2.07074 3.58664c-0.18066,0.3129 -0.49087,0.492 -0.85218,0.492l-4.14149 0c-0.36131,0 -0.67152,-0.1791 -0.85217,-0.49201l-2.07074 -3.58662c-0.18066,-0.3129 -0.18066,-0.6711 0,-0.98401l2.07074 -3.58664c0.18066,-0.3129 0.49087,-0.492 0.85218,-0.492z"/>
  <g id="_2427765926224">
   <path class="fil1 str1" d="M6.73961 1.90671l0 2.08759c0,0.8832 -0.68472,1.60582 -1.52163,1.60582l0 0c-0.8369,0 -1.52162,-0.7226 -1.52162,-1.60582l0 -2.08759 3.04325 0z"/>
   <path class="fil1 str1" d="M3.3782 2.91565l-0.65399 0c-0.00666,0.05538 -0.01,0.1111 -0.01,0.16688 0,0.48759 0.2542,0.93989 0.6707,1.19342l0.29761 0"/>
   <path class="fil1 str1" d="M7.03011 2.91565l0.65399 0c0.00665,0.05538 0.01,0.1111 0.01,0.16688 0,0.48759 -0.2542,0.93989 -0.6707,1.19342l-0.29761 0"/>
   <path class="fil1 str1" d="M4.79608 5.55863l0 0.65014c0,0.35435 -0.59943,0.37811 -0.89915,0.56716"/>
   <path class="fil1 str1" d="M5.63988 5.55863l0 0.65014c0,0.35435 0.59944,0.37811 0.89915,0.56716"/>
   <path class="fil1 str1" d="M3.55802 7.38458l3.31993 0 0 -0.34583c0,-0.13694 -0.11205,-0.24899 -0.24898,-0.24899l-2.82198 0c-0.13693,0 -0.24897,0.11205 -0.24897,0.24899l0 0.34583z"/>
   <polyline class="fil1 str1" points="4.40734,3.53565 4.93852,4.38555 5.94779,2.84509 "/>
  </g>
 </g>
</svg>
