<?xml version="1.0" encoding="UTF-8"?>
<!DOCTYPE svg PUBLIC "-//W3C//DTD SVG 1.1//EN" "http://www.w3.org/Graphics/SVG/1.1/DTD/svg11.dtd">
<!-- Creator: CorelDRAW 2017 -->
<svg xmlns="http://www.w3.org/2000/svg" xml:space="preserve" width="100%" height="100%" version="1.1" style="shape-rendering:geometricPrecision; text-rendering:geometricPrecision; image-rendering:optimizeQuality; fill-rule:evenodd; clip-rule:evenodd"
viewBox="0 0 5.23676 5.89474"
 xmlns:xlink="http://www.w3.org/1999/xlink">
 <defs>
  <style type="text/css">
   <![CDATA[
    .str0 {stroke:#FEFEFE;stroke-width:0.17435;stroke-miterlimit:22.9256}
    .fil0 {fill:none}
    .fil1 {fill:#201E1E}
   ]]>
  </style>
 </defs>
 <g id="Camada_x0020_1">
  <metadata id="CorelCorpID_0Corel-Layer"/>
  <g id="_1752534978624">
   <path class="fil0 str0" d="M2.82565 0.14425l2.11667 1.22206c0.13182,0.0761 0.20727,0.20679 0.20727,0.359l0 2.44412c0,0.15221 -0.07545,0.2829 -0.20727,0.35901l-2.11667 1.22205c-0.13182,0.07611 -0.28272,0.07611 -0.41454,0l-2.11667 -1.22205c-0.13182,-0.07611 -0.20727,-0.2068 -0.20727,-0.35901l0 -2.44412c0,-0.15221 0.07545,-0.2829 0.20727,-0.359l2.11667 -1.22206c0.13182,-0.07611 0.28272,-0.07611 0.41454,0z"/>
   <g>
    <path class="fil1" d="M1.24314 3.61718c0,0.23966 0.02452,0.4176 0.08293,0.61538 0.03196,0.10819 0.09005,0.25255 0.13551,0.35615 0.02151,0.04901 0.02928,0.08306 0.08796,0.08306 0.04249,0 0.07473,-0.03511 0.07618,-0.07203 0.00088,-0.02222 -0.03091,-0.09064 -0.04075,-0.11303 -0.03096,-0.0705 -0.06211,-0.14748 -0.08803,-0.2255 -0.09511,-0.28626 -0.09704,-0.42153 -0.09704,-0.71528 0.10546,0 0.36421,0.07436 0.46324,0.11393 0.19088,0.07627 0.47451,0.22218 0.61415,0.39056 0.03015,0.03635 0.01997,0.06851 0.01996,0.12969 -0.00003,0.09738 0,0.19476 0,0.29215 0,0.12365 -0.02118,0.22089 0.0855,0.22089 0.09719,0 0.07126,-0.1638 0.07126,-0.2779l-0.00012 -0.25664c-0.00042,-0.04153 -0.00344,-0.05443 0.01377,-0.07886 0.03371,-0.04783 0.13302,-0.12966 0.18035,-0.16881 0.0338,-0.02795 0.06954,-0.04925 0.1052,-0.07294 0.17329,-0.11508 0.40201,-0.20657 0.61851,-0.25794 0.07408,-0.01758 0.1255,-0.01044 0.12886,-0.04026 0.00223,-0.01987 -0.02544,-0.12242 -0.03226,-0.14599 -0.01039,-0.03595 -0.08358,-0.24692 -0.10936,-0.24692 -0.02717,0 -0.06534,0.01239 -0.09558,0.01844 -0.03735,0.00747 -0.06533,0.01183 -0.1021,0.01903 -0.06184,0.0121 -0.14412,0.02458 -0.20976,0.03251 -0.49074,0.05933 -0.91878,0.0524 -1.40544,-0.04562 -0.05526,-0.01114 -0.18713,-0.03467 -0.22504,-0.05286l0.09975 -0.20664c-0.01938,-0.0093 -0.12781,-0.03499 -0.15676,-0.03563l-0.07365 0.1615c-0.02561,0.05479 -0.05043,0.11388 -0.06982,0.17245 -0.03841,0.11606 -0.07742,0.25161 -0.07742,0.40711z"/>
    <path class="fil1" d="M3.4307 2.49134l0.04252 -0.00821c0.00095,0.03322 0.00831,0.03873 0.01448,0.06521l-0.04251 0.00821c-0.00068,-0.02072 -0.00845,-0.0517 -0.01449,-0.06521zm-1.76715 0.11401c-0.01981,-0.00951 -0.0138,-0.00713 -0.04276,-0.00713 0.00463,-0.05555 0.03434,-0.12009 0.03563,-0.17814 0.01678,0.00391 0.02105,0.00664 0.04276,0.00713 -0.00969,0.04156 -0.03563,0.14394 -0.03563,0.17814zm-0.19952 -0.22802l0 0.07125 -0.04275 0c0,-0.03951 0.00643,-0.04738 0.00712,-0.07838 -0.04443,-0.01035 -0.10156,-0.01425 -0.15676,-0.01425 0,0.06201 0.01425,0.13894 0.01425,0.19952l-0.04275 0c0,-0.05175 -0.00464,-0.15826 -0.01425,-0.19952 -0.09909,0.00221 -0.19908,0.03155 -0.26574,0.09767 -0.04785,0.04746 -0.07939,0.17874 -0.1057,0.2577 -0.01245,0.03735 -0.05525,0.14787 -0.0561,0.18618 0.06109,-0.04091 0.19737,-0.20665 0.39191,-0.20665 0.26291,0 0.35313,0.06176 0.60745,0.11224 0.61234,0.12153 1.10513,0.13685 1.7155,-0.00535l0.16695 0.35322c0.10766,0.25834 0.11095,0.31972 0.11095,0.58736 0,0.42205 -0.21688,0.81653 -0.22347,0.8724 -0.0054,0.04582 0.02146,0.08243 0.08095,0.08243 0.0656,0 0.09632,-0.11649 0.1293,-0.19849 0.11977,-0.29782 0.16998,-0.5335 0.16998,-0.8846 0,-0.23118 -0.09795,-0.47381 -0.19239,-0.66268 -0.02055,-0.0411 -0.08368,-0.15395 -0.09264,-0.1924 0.04152,-0.00345 0.078,-0.02723 0.11401,-0.03562 -0.00258,-0.0097 -0.08726,-0.16814 -0.12113,-0.31353 -0.03789,0.00883 -0.07127,0.0392 -0.11401,0.04275 -0.00635,-0.02723 -0.01073,-0.03878 -0.01451,-0.07099 -0.01083,-0.09222 -0.0283,-0.04221 -0.16363,-0.10715 0,0.11692 0.02752,0.18421 0.0285,0.22802 -0.0356,0.0008 -0.05703,0.01346 -0.09263,0.01425 0,0.06629 0.02362,0.12665 0.0285,0.18527 -0.01678,0.00391 -0.02104,0.00664 -0.04275,0.00713 0,-0.05901 -0.02374,-0.1209 -0.02851,-0.17815 -0.03817,0 -0.05996,0.00436 -0.09759,0.0093 -0.08645,0.01134 -0.08054,-0.01444 -0.08054,0.08334l-0.03563 0c-0.0007,-0.0314 -0.00713,-0.03332 -0.00713,-0.07126l-0.13539 0.00713 0 0.18526 -0.03562 0 -0.00713 -0.18526c-0.21727,0 -0.18527,-0.01732 -0.18527,0.07838 -0.01739,-0.00978 -0.01318,-0.00713 -0.04275,-0.00713l0.00844 -0.07107 -0.14382 -0.00731c0,0.04493 -0.00549,0.06493 -0.00714,0.09975 -0.00334,0.07041 0.01886,0.08552 -0.04275,0.08552 0,-0.06807 0.00713,-0.11317 0.00713,-0.18527 -0.05252,-0.01224 -0.11292,-0.01425 -0.17814,-0.01425 -0.0068,0.02918 -0.00712,0.03346 -0.00712,0.07126l-0.04252 -0.00821c-0.00024,-0.03505 0.00689,-0.03774 0.00689,-0.0773 -0.05109,0 -0.08431,-0.01425 -0.13539,-0.01425 -0.00953,0.04091 -0.0285,0.14031 -0.0285,0.18526l-0.04252 -0.0082 0.02827 -0.18419 -0.17814 -0.0285c-0.00196,0.02354 -0.00927,0.04275 -0.01425,0.06413l-0.04252 -0.00821c0.00855,-0.01723 0.01401,-0.04234 0.01401,-0.07017 -0.01624,-0.00378 -0.01639,-0.00553 -0.03562,-0.00713 0.01958,-0.04081 0.02137,-0.17591 0.02137,-0.23514 -0.03419,0.00076 -0.07742,0.02162 -0.10923,0.03328 -0.06009,0.02202 -0.04162,0.02945 -0.04945,0.10019 -0.01428,0.12905 -0.03131,0.03042 -0.1976,0.03042z"/>
    <path class="fil1" d="M3.49483 1.99254c-0.01874,-0.00436 -0.02094,-0.00647 -0.03563,-0.01425 0.00161,-0.01938 0.04785,-0.15192 0.05701,-0.17101 0.01624,0.00378 0.01638,0.00552 0.03563,0.00713 -0.00444,0.05327 -0.04483,0.12587 -0.05701,0.17813zm-1.98647 -0.79094l0.03789 0c0.02369,0.00623 0.04647,0.02441 0.06039,0.05691l0.0845 0.23615c0.01817,0.05452 0.03599,0.10633 0.05083,0.16294 0.00563,0.02148 0.01426,0.06478 0.02325,0.08364 0.01207,0.02532 0.0103,0.00469 0.02342,0.03358 0.00315,0.00694 0.00857,0.03218 0.0103,0.03959 0.01624,-0.00379 0.01638,-0.00553 0.03562,-0.00713 -0.00051,-0.02314 -0.0068,-0.04861 -0.01425,-0.06413 0.04431,-0.02126 0.14705,-0.03838 0.17102,-0.04988l0.03562 0.17814c0.01625,-0.00379 0.01639,-0.00552 0.03563,-0.00713 0,-0.02584 -0.02803,-0.16231 -0.03563,-0.17814 0.04359,-0.00362 0.08655,-0.02137 0.13539,-0.02137 0,0.07968 0.01518,0.06413 0.04275,0.06413 0,-0.0378 -0.00032,-0.04208 -0.00712,-0.07126 0.05347,-0.00119 0.07266,-0.01425 0.17814,-0.01425 0,0.06979 0.00712,0.11155 0.00712,0.17814l0.04276 0 -0.00713 -0.18527 0.12826 0 0 0.07126 0.03432 -0.00018 0.00844 -0.07108c0.06612,0 0.11341,0.00713 0.17101,0.00713 0,0.06154 -0.01425,0.12372 -0.01425,0.18527 0.04605,0.00102 0.03794,0.051 0.05701,-0.17814 0.05411,0 0.0775,0.00712 0.12826,0.00712 0,0.03613 -0.00713,0.03882 -0.00713,0.07838 0.03934,0.00088 0.0375,0.01766 0.04255,-0.02855 0.00476,-0.04348 -0.00184,-0.0422 0.03502,-0.03648 0.03056,0.00473 0.12362,0.01995 0.14333,0.0294 -0.01185,0.05086 -0.03563,0.12776 -0.03563,0.18527 0.028,0.00062 0.01671,-0.00195 0.03563,0.00713 0.00491,-0.05904 0.03428,-0.12503 0.03562,-0.18527 0.03833,0.00319 0.09978,0.02613 0.12826,0.0285 -0.00088,0.03975 -0.01336,0.03864 -0.01425,0.07839 0.028,0.00062 0.01672,-0.00196 0.03563,0.00712 0.00378,-0.01624 0.01522,-0.05842 0.02138,-0.07125 0.02464,0.00574 0.05072,0.01152 0.07125,0.02137 0.00093,-0.04158 0.03111,-0.13084 0.0436,-0.17017l0.10868 -0.31173c0.01408,-0.04006 0.03121,-0.07864 0.06744,-0.08815l0.038 0c0.00327,0.00069 0.00664,0.00154 0.01012,0.00256 0.02673,0.00788 0.04386,0.03114 0.04621,0.06182 0.00278,0.03636 -0.0119,0.06114 -0.02106,0.0861 -0.05686,0.15496 -0.11222,0.30525 -0.15047,0.46945 0.01841,0.00153 0.09099,0.028 0.10688,0.03563 -0.00188,0.02257 -0.01338,0.05458 -0.02138,0.07125 0.01258,0.00604 0.02306,0.00822 0.03563,0.01426 0.01281,-0.02422 0.01715,-0.04761 0.0285,-0.07126 0.03651,0.01752 0.12737,0.03919 0.14964,0.04988 -0.00108,0.04868 -0.03199,0.13196 -0.04275,0.17814 0.01675,0.00804 0.026,0.00621 0.04275,0.01425 0.00066,-0.02945 0.01368,-0.07027 0.01986,-0.09415 0.00843,-0.03256 0.01525,-0.05829 0.0229,-0.09112 0.01977,0.00949 0.0837,0.02138 0.114,0.02138 0,0.03956 -0.00712,0.04226 -0.00712,0.07838l0.04275 0c0,-0.03779 0.00033,-0.04207 0.00713,-0.07125 0.1527,0 0.24874,-0.01438 0.37053,-0.04276 -0.00192,0.02303 -0.12769,0.29594 -0.14493,0.33249 -0.00942,0.01996 -0.01381,0.02309 -0.01896,0.04517 -0.06101,0 -0.129,0.01944 -0.19197,0.01392 -0.44201,-0.0387 -0.6491,-0.21208 -1.14555,-0.29391 -0.23163,-0.03818 -0.51476,-0.04761 -0.76054,-0.00816 -0.12302,0.01975 -0.22862,0.04244 -0.33374,0.07954 -0.09647,0.03405 -0.16298,0.06123 -0.24808,0.10925 -0.01409,0.00796 -0.02175,0.01278 -0.02785,0.00673l-0.05694 -0.32765 0.11394 -0.05713c-0.001,-0.04497 -0.03175,-0.13182 -0.04424,-0.17665 -0.03126,-0.11212 -0.07457,-0.21508 -0.11288,-0.32183 -0.02221,-0.06191 0.00622,-0.10399 0.04469,-0.11433zm0.11243 0.61281l0.04252 -0.00821c0.01316,0.05656 0.04432,0.10236 0.05724,0.15784 -0.01874,0.00437 -0.02094,0.00648 -0.03563,0.01425l-0.06413 -0.16388z"/>
   </g>
  </g>
 </g>
</svg>
