<?xml version="1.0" encoding="UTF-8"?>
<!DOCTYPE svg PUBLIC "-//W3C//DTD SVG 1.1//EN" "http://www.w3.org/Graphics/SVG/1.1/DTD/svg11.dtd">
<!-- Creator: CorelDRAW 2017 -->
<svg xmlns="http://www.w3.org/2000/svg" xml:space="preserve" width="100%" height="100%" version="1.1" style="shape-rendering:geometricPrecision; text-rendering:geometricPrecision; image-rendering:optimizeQuality; fill-rule:evenodd; clip-rule:evenodd"
viewBox="0 0 13.96314 4.33812"
 xmlns:xlink="http://www.w3.org/1999/xlink">
 <defs>
  <style type="text/css">
   <![CDATA[
    .str0 {stroke:black;stroke-width:0.15;stroke-miterlimit:22.9256}
    .str1 {stroke:black;stroke-width:0.15;stroke-miterlimit:22.9256}
    .fil0 {fill:none}
    .fil1 {fill:black}
    .fil2 {fill:#FEFEFE;fill-rule:nonzero}
   ]]>
  </style>
 </defs>
 <g id="Camada_x0020_1">
  <metadata id="CorelCorpID_0Corel-Layer"/>
  <rect class="fil0 str0" x="0.075" y="0.075" width="13.81314" height="1.61886"/>
  <rect class="fil1 str1" x="0.075" y="1.69386" width="13.81314" height="1.83066"/>
  <path class="fil2" d="M1.07368 1.3032c0.12684,0 0.21877,-0.0128 0.27347,-0.03724 0.06749,-0.03375 0.10124,-0.08146 0.10124,-0.14197l0 -0.064c0,-0.03957 -0.01397,-0.07215 -0.04306,-0.09658 -0.02676,-0.02677 -0.07447,-0.04888 -0.14429,-0.0675l-0.20947 -0.05934c-0.05003,-0.01281 -0.08145,-0.02444 -0.09658,-0.03608 -0.01513,-0.01164 -0.02211,-0.02793 -0.02211,-0.05004 0,-0.02443 0.00931,-0.04189 0.02677,-0.05353 0.02443,-0.01512 0.07796,-0.02327 0.16058,-0.02327 0.10124,0 0.1955,0.00931 0.28277,0.02793l0 -0.12568c-0.07447,-0.01512 -0.16291,-0.02327 -0.26531,-0.02327 -0.13383,0 -0.22808,0.01862 -0.2851,0.05702 -0.05237,0.03607 -0.07215,0.07098 -0.07215,0.12335l0 0.05585c0,0.03841 0.0128,0.06982 0.0384,0.09543 0.03142,0.03025 0.08495,0.05585 0.16059,0.07563l0.19782 0.05586c0.08844,0.02211 0.11637,0.04189 0.11637,0.08495 0,0.03025 -0.01047,0.05004 -0.03026,0.06051 -0.03258,0.01513 -0.09425,0.02327 -0.18502,0.02327 -0.09891,0 -0.19666,-0.00931 -0.29208,-0.02676l0 0.12451c0.07796,0.01396 0.17339,0.02095 0.28742,0.02095z"/>
  <polygon id="1" class="fil2" points="2.31954,1.20079 2.58253,0.8098 2.58253,1.29156 2.73497,1.29156 2.73497,0.56427 2.593,0.56427 2.27649,1.03672 1.95764,0.56427 1.81102,0.56427 1.81102,1.29156 1.96346,1.29156 1.96346,0.80864 2.22645,1.20079 "/>
  <path id="2" class="fil2" d="M3.47812 0.69343l0.13265 0.32234 -0.29789 0 0.13265 -0.32234 0.03259 0zm0.40612 0.59813l-0.29907 -0.72729 -0.24553 0 -0.2979 0.72729 0.15826 0 0.06516 -0.15826 0.39449 0 0.06516 0.15826 0.15943 0z"/>
  <path id="3" class="fil2" d="M4.49938 0.68412c0.07797,0 0.13848,0.01746 0.18386,0.05237 0.02211,0.01862 0.03259,0.04655 0.03259,0.08495l0 0.04771c0,0.0384 -0.01048,0.06749 -0.03259,0.08611 -0.04654,0.03491 -0.10822,0.05236 -0.18386,0.05236l-0.15709 0 0 -0.3235 0.15709 0zm0.01397 0.4422c0.0256,0 0.04887,-0.00116 0.07098,-0.00349l0.11404 0.16873 0.17804 0 -0.15011 -0.20481c0.02676,-0.01163 0.05237,-0.02676 0.07797,-0.04654 0.02676,-0.02095 0.04422,-0.04306 0.05236,-0.06517 0.00815,-0.02211 0.01164,-0.05702 0.01164,-0.10706l0 -0.04422c0,-0.05003 -0.00349,-0.08611 -0.01164,-0.10822 -0.00814,-0.02211 -0.0256,-0.04305 -0.05236,-0.064 -0.07564,-0.05935 -0.15594,-0.08727 -0.29092,-0.08727l-0.3235 0 0 0.72729 0.15244 0 0 -0.16524 0.17106 0z"/>
  <polygon id="4" class="fil2" points="5.85812,0.56427 5.15642,0.56427 5.15642,0.68296 5.43105,0.68296 5.43105,1.29156 5.58349,1.29156 5.58349,0.68296 5.85812,0.68296 "/>
  <path id="5" class="fil2" d="M6.97246 0.68412c0.07797,0 0.13848,0.01746 0.18386,0.05237 0.02211,0.01862 0.03259,0.04655 0.03259,0.08495l0 0.04771c0,0.0384 -0.01048,0.06749 -0.03259,0.08611 -0.04654,0.03491 -0.10822,0.05236 -0.18386,0.05236l-0.15709 0 0 -0.3235 0.15709 0zm0.01397 0.4422c0.0256,0 0.04887,-0.00116 0.07098,-0.00349l0.11404 0.16873 0.17804 0 -0.15011 -0.20481c0.02676,-0.01163 0.05237,-0.02676 0.07797,-0.04654 0.02676,-0.02095 0.04422,-0.04306 0.05236,-0.06517 0.00815,-0.02211 0.01164,-0.05702 0.01164,-0.10706l0 -0.04422c0,-0.05003 -0.00349,-0.08611 -0.01164,-0.10822 -0.00814,-0.02211 -0.0256,-0.04305 -0.05236,-0.064 -0.07564,-0.05935 -0.15594,-0.08727 -0.29092,-0.08727l-0.3235 0 0 0.72729 0.15244 0 0 -0.16524 0.17106 0z"/>
  <polygon id="6" class="fil2" points="8.30443,1.29156 8.30443,1.17519 7.8506,1.17519 7.8506,0.98551 8.26952,0.98551 8.26952,0.86915 7.8506,0.86915 7.8506,0.68296 8.30443,0.68296 8.30443,0.56427 7.69816,0.56427 7.69816,1.29156 "/>
  <polygon id="7" class="fil2" points="9.21282,1.29156 9.21282,1.17519 8.80205,1.17519 8.80205,0.56427 8.64961,0.56427 8.64961,1.29156 "/>
  <polygon id="8" class="fil2" points="10.14681,1.29156 10.14681,1.17519 9.69298,1.17519 9.69298,0.98551 10.1119,0.98551 10.1119,0.86915 9.69298,0.86915 9.69298,0.68296 10.14681,0.68296 10.14681,0.56427 9.54054,0.56427 9.54054,1.29156 "/>
  <path id="9" class="fil2" d="M10.85273 0.69343l0.13265 0.32234 -0.29789 0 0.13265 -0.32234 0.03259 0zm0.40612 0.59813l-0.29907 -0.72729 -0.24553 0 -0.2979 0.72729 0.15826 0 0.06516 -0.15826 0.39449 0 0.06516 0.15826 0.15943 0z"/>
  <path id="10" class="fil2" d="M11.83908 1.3032c0.12684,0 0.21877,-0.0128 0.27347,-0.03724 0.06749,-0.03375 0.10124,-0.08146 0.10124,-0.14197l0 -0.064c0,-0.03957 -0.01397,-0.07215 -0.04306,-0.09658 -0.02676,-0.02677 -0.07447,-0.04888 -0.14429,-0.0675l-0.20947 -0.05934c-0.05003,-0.01281 -0.08145,-0.02444 -0.09658,-0.03608 -0.01513,-0.01164 -0.02211,-0.02793 -0.02211,-0.05004 0,-0.02443 0.00931,-0.04189 0.02677,-0.05353 0.02443,-0.01512 0.07796,-0.02327 0.16058,-0.02327 0.10124,0 0.1955,0.00931 0.28277,0.02793l0 -0.12568c-0.07447,-0.01512 -0.16291,-0.02327 -0.26531,-0.02327 -0.13383,0 -0.22808,0.01862 -0.2851,0.05702 -0.05237,0.03607 -0.07215,0.07098 -0.07215,0.12335l0 0.05585c0,0.03841 0.0128,0.06982 0.0384,0.09543 0.03142,0.03025 0.08495,0.05585 0.16059,0.07563l0.19782 0.05586c0.08844,0.02211 0.11637,0.04189 0.11637,0.08495 0,0.03025 -0.01047,0.05004 -0.03026,0.06051 -0.03258,0.01513 -0.09425,0.02327 -0.18502,0.02327 -0.09891,0 -0.19666,-0.00931 -0.29208,-0.02676l0 0.12451c0.07796,0.01396 0.17339,0.02095 0.28742,0.02095z"/>
  <polygon id="11" class="fil2" points="13.18269,1.29156 13.18269,1.17519 12.72886,1.17519 12.72886,0.98551 13.14778,0.98551 13.14778,0.86915 12.72886,0.86915 12.72886,0.68296 13.18269,0.68296 13.18269,0.56427 12.57642,0.56427 12.57642,1.29156 "/>
  <polygon class="fil2" points="1.62675,3.14348 1.89603,3.14348 1.89603,2.0783 1.60971,2.0783 1.60971,2.7549 0.98594,2.0783 0.71836,2.0783 0.71836,3.14348 1.00298,3.14348 1.00298,2.47199 "/>
  <path id="1" class="fil2" d="M2.99722 2.3186l0.15339 0.40392 -0.35279 0 0.15168 -0.40392 0.04772 0zm0.60843 0.82488l-0.40221 -1.06518 -0.45675 0 -0.40221 1.06518 0.29484 0 0.0767 -0.20451 0.5164 0 0.07669 0.20451 0.29654 0z"/>
  <polygon id="2" class="fil2" points="4.96079,3.14348 5.23007,3.14348 5.23007,2.0783 4.94375,2.0783 4.94375,2.7549 4.31998,2.0783 4.0524,2.0783 4.0524,3.14348 4.33702,3.14348 4.33702,2.47199 "/>
  <path id="3" class="fil2" d="M6.36535 2.05273c-0.20111,0 -0.37494,0.05284 -0.52151,0.16021 -0.0375,0.02897 -0.06136,0.05794 -0.07329,0.09032 -0.01193,0.03239 -0.01875,0.08352 -0.01875,0.15169l0 0.31188c0,0.06817 0.00682,0.1176 0.01875,0.14998 0.01193,0.03238 0.03579,0.06306 0.07329,0.09203 0.14486,0.10396 0.3187,0.1568 0.52151,0.1568 0.20281,0 0.37494,-0.05284 0.51981,-0.1568 0.03749,-0.02897 0.06306,-0.05965 0.07499,-0.09203 0.01193,-0.03238 0.01704,-0.08181 0.01704,-0.14998l0 -0.31188c0,-0.06817 -0.00511,-0.1176 -0.01704,-0.14998 -0.01193,-0.03238 -0.0375,-0.06306 -0.07499,-0.09203 -0.14487,-0.10737 -0.317,-0.16021 -0.51981,-0.16021zm0 0.22838c0.11419,0 0.21133,0.02897 0.28802,0.08692 0.02557,0.02386 0.0375,0.05624 0.0375,0.09885l0 0.28802c0,0.04431 -0.01193,0.07669 -0.0375,0.09885 -0.07669,0.05795 -0.17213,0.08692 -0.28802,0.08692 -0.11589,0 -0.21133,-0.02897 -0.28803,-0.08692 -0.02556,-0.02216 -0.03919,-0.05454 -0.03919,-0.09885l0 -0.28802c0,-0.04431 0.01363,-0.0767 0.03919,-0.09885 0.07499,-0.05795 0.17043,-0.08692 0.28803,-0.08692z"/>
  <path id="4" class="fil2" d="M8.06646 2.29645c0.07669,0 0.12782,0.00852 0.15339,0.02727 0.02045,0.01534 0.03068,0.0426 0.03068,0.07839 0,0.0392 -0.01023,0.06477 -0.03068,0.0784 -0.02386,0.01534 -0.06306,0.02386 -0.1176,0.02386l-0.3187 0 0 -0.20792 0.28291 0zm0.0392 0.41584c0.06647,0 0.11248,0.00853 0.13975,0.02727 0.02216,0.01875 0.03409,0.04602 0.03409,0.08181 0,0.03579 -0.01193,0.06135 -0.03409,0.0784 -0.02897,0.01874 -0.0784,0.02897 -0.14998,0.02897l-0.31188 0 0 -0.21645 0.32211 0zm-0.02727 0.43119c0.20622,0 0.30848,-0.01704 0.38858,-0.0801 0.07328,-0.05624 0.09374,-0.10567 0.09374,-0.18236l0 -0.08351c0,-0.09374 -0.0375,-0.13975 -0.13976,-0.19259l-0.0034 -0.0017c0.07669,-0.04261 0.11589,-0.10226 0.11589,-0.17895l0 -0.08521c0,-0.06988 -0.02386,-0.12442 -0.07329,-0.16532 -0.09373,-0.07669 -0.20451,-0.09544 -0.40221,-0.09544l-0.55901 0 0 1.06518 0.57946 0z"/>
  <polygon id="5" class="fil2" points="9.99083,3.14348 9.99083,2.92874 9.33468,2.92874 9.33468,2.71741 9.92436,2.71741 9.92436,2.50096 9.33468,2.50096 9.33468,2.29645 9.99083,2.29645 9.99083,2.0783 9.05006,2.0783 9.05006,3.14348 "/>
  <path id="6" class="fil2" d="M11.04942 2.3186l0.15339 0.40392 -0.35279 0 0.15168 -0.40392 0.04772 0zm0.60843 0.82488l-0.40221 -1.06518 -0.45675 0 -0.40221 1.06518 0.29484 0 0.0767 -0.20451 0.5164 0 0.07669 0.20451 0.29654 0z"/>
  <path id="7" class="fil2" d="M12.63293 2.29645c0.12782,0 0.22156,0.02386 0.28292,0.06987 0.02897,0.02557 0.04431,0.06477 0.04431,0.1176l0 0.25394c0,0.05283 -0.01534,0.09203 -0.04431,0.11759 -0.06306,0.04943 -0.1568,0.07329 -0.28292,0.07329l-0.24371 0 0 -0.63229 0.24371 0zm0.05795 0.84703c0.1994,0 0.34938,-0.0409 0.45164,-0.12441 0.0426,-0.03579 0.07158,-0.07329 0.08351,-0.10908 0.01193,-0.03579 0.01874,-0.08862 0.01874,-0.1602l0 -0.2778c0,-0.06817 -0.00681,-0.1193 -0.01874,-0.15509 -0.01364,-0.03579 -0.04091,-0.06988 -0.08181,-0.10567 -0.10737,-0.08862 -0.25905,-0.13293 -0.45334,-0.13293l-0.58628 0 0 1.06518 0.58628 0z"/>
  <polygon class="fil2" points="2.38008,3.7907 1.86881,3.7907 1.86881,3.86558 2.07711,3.86558 2.07711,4.32865 2.17179,4.32865 2.17179,3.86558 2.38008,3.86558 "/>
  <polygon id="1" class="fil2" points="3.34133,4.32865 3.34133,4.25463 3.00307,4.25463 3.00307,4.09626 3.31982,4.09626 3.31982,4.02223 3.00307,4.02223 3.00307,3.86558 3.34133,3.86558 3.34133,3.7907 2.90839,3.7907 2.90839,4.32865 "/>
  <path id="2" class="fil2" d="M4.40329 3.8148c-0.05767,-0.02152 -0.12911,-0.03271 -0.2126,-0.03271 -0.0921,0 -0.17387,0.02238 -0.24445,0.06714 -0.02496,0.01549 -0.04131,0.03185 -0.0482,0.0482 -0.00774,0.01635 -0.01119,0.04217 -0.01119,0.0766l0 0.17301c0,0.03443 0.00345,0.06025 0.01119,0.0766 0.00689,0.01636 0.02324,0.03271 0.0482,0.0482 0.06886,0.0439 0.15063,0.06542 0.24445,0.06542 0.08435,0 0.15493,-0.01033 0.2126,-0.03099l0 -0.08005c-0.07489,0.02324 -0.14461,0.03443 -0.21002,0.03443 -0.08005,0 -0.14374,-0.01807 -0.19108,-0.05508 -0.01377,-0.01119 -0.02066,-0.03185 -0.02066,-0.0637l0 -0.16267c0,-0.03185 0.00689,-0.05251 0.02066,-0.0637 0.04734,-0.03701 0.11103,-0.05508 0.19108,-0.05508 0.06541,0 0.13513,0.01119 0.21002,0.03443l0 -0.08005z"/>
  <polygon id="3" class="fil2" points="5.51344,4.32865 5.51344,3.7907 5.41876,3.7907 5.41876,4.02051 5.06845,4.02051 5.06845,3.7907 4.97377,3.7907 4.97377,4.32865 5.06845,4.32865 5.06845,4.09539 5.41876,4.09539 5.41876,4.32865 "/>
  <polygon id="4" class="fil2" points="6.57196,4.32865 6.65803,4.32865 6.65803,3.7907 6.56335,3.7907 6.56335,4.1961 6.18549,3.7907 6.09942,3.7907 6.09942,4.32865 6.1941,4.32865 6.1941,3.92669 "/>
  <path id="5" class="fil2" d="M7.52718 3.77779c-0.0921,0 -0.17387,0.02496 -0.24617,0.07574 -0.01979,0.01377 -0.03184,0.02927 -0.03787,0.04562 -0.00602,0.01635 -0.00861,0.04304 -0.00861,0.07919l0 0.16095c0,0.03529 0.00259,0.06197 0.00861,0.07833 0.00603,0.01721 0.01808,0.0327 0.03787,0.04562 0.07144,0.04992 0.15407,0.07488 0.24617,0.07488 0.09382,0 0.17559,-0.02496 0.24616,-0.07488 0.0198,-0.01378 0.03185,-0.02927 0.03788,-0.04562 0.00602,-0.01636 0.0086,-0.04304 0.0086,-0.07833l0 -0.16095c0,-0.03615 -0.00258,-0.06284 -0.0086,-0.07919 -0.00603,-0.01635 -0.01808,-0.03099 -0.03788,-0.04562 -0.07144,-0.05078 -0.1532,-0.07574 -0.24616,-0.07574zm0 0.07746c0.068,0 0.12652,0.01808 0.17386,0.05337 0.01636,0.01549 0.0241,0.03701 0.0241,0.06455l0 0.17129c0,0.0284 -0.00774,0.04906 -0.0241,0.06369 -0.03787,0.0284 -0.10242,0.05336 -0.17386,0.05336 -0.06886,0 -0.12653,-0.01807 -0.17301,-0.05336 -0.01635,-0.01291 -0.02496,-0.03443 -0.02496,-0.06369l0 -0.17129c0,-0.03012 0.00861,-0.05164 0.02496,-0.06455 0.04648,-0.03529 0.10415,-0.05337 0.17301,-0.05337z"/>
  <polygon id="6" class="fil2" points="8.80087,4.32865 8.80087,4.25463 8.49101,4.25463 8.49101,3.7907 8.39633,3.7907 8.39633,4.32865 "/>
  <path id="7" class="fil2" d="M9.61666 3.77779c-0.0921,0 -0.17387,0.02496 -0.24617,0.07574 -0.01979,0.01377 -0.03184,0.02927 -0.03787,0.04562 -0.00602,0.01635 -0.00861,0.04304 -0.00861,0.07919l0 0.16095c0,0.03529 0.00259,0.06197 0.00861,0.07833 0.00603,0.01721 0.01808,0.0327 0.03787,0.04562 0.07144,0.04992 0.15407,0.07488 0.24617,0.07488 0.09382,0 0.17559,-0.02496 0.24616,-0.07488 0.0198,-0.01378 0.03185,-0.02927 0.03788,-0.04562 0.00602,-0.01636 0.0086,-0.04304 0.0086,-0.07833l0 -0.16095c0,-0.03615 -0.00258,-0.06284 -0.0086,-0.07919 -0.00603,-0.01635 -0.01808,-0.03099 -0.03788,-0.04562 -0.07144,-0.05078 -0.1532,-0.07574 -0.24616,-0.07574zm0 0.07746c0.068,0 0.12652,0.01808 0.17386,0.05337 0.01636,0.01549 0.0241,0.03701 0.0241,0.06455l0 0.17129c0,0.0284 -0.00774,0.04906 -0.0241,0.06369 -0.03787,0.0284 -0.10242,0.05336 -0.17386,0.05336 -0.06886,0 -0.12653,-0.01807 -0.17301,-0.05336 -0.01635,-0.01291 -0.02496,-0.03443 -0.02496,-0.06369l0 -0.17129c0,-0.03012 0.00861,-0.05164 0.02496,-0.06455 0.04648,-0.03529 0.10415,-0.05337 0.17301,-0.05337z"/>
  <path id="8" class="fil2" d="M11.02462 4.06097l-0.09468 0 0 0.18419c-0.05164,0.01033 -0.09554,0.01549 -0.13169,0.01549 -0.09381,0 -0.16353,-0.01721 -0.20743,-0.05164 -0.01377,-0.01119 -0.02066,-0.03185 -0.02066,-0.06369l0 -0.16612c0,-0.03185 0.00689,-0.05251 0.02066,-0.0637 0.04734,-0.03701 0.11275,-0.05508 0.19624,-0.05508 0.06972,0 0.14202,0.01119 0.21518,0.03443l0 -0.08005c-0.0568,-0.02152 -0.1291,-0.03271 -0.21604,-0.03271 -0.09898,0 -0.18247,0.02238 -0.25133,0.06714 -0.02496,0.01549 -0.04131,0.03185 -0.0482,0.0482 -0.00774,0.01635 -0.01119,0.04217 -0.01119,0.0766l0 0.17645c0,0.03443 0.00345,0.06025 0.01119,0.07661 0.00689,0.01635 0.02324,0.0327 0.0482,0.0482 0.06542,0.04217 0.15321,0.06283 0.26252,0.06283 0.08349,0 0.15924,-0.01291 0.22723,-0.03787l0 -0.23928z"/>
  <polygon id="9" class="fil2" points="12.09432,3.7907 11.99017,3.7907 11.81717,4.06785 11.79909,4.06785 11.62695,3.7907 11.52108,3.7907 11.76036,4.17458 11.76036,4.32865 11.85504,4.32865 11.85504,4.17458 "/>
 </g>
</svg>
